<?xml version="1.0" encoding="utf-8"?>
<!-- Generator: Adobe Illustrator 21.0.1, SVG Export Plug-In . SVG Version: 6.00 Build 0)  -->
<svg version="1.1" id="Layer_1" xmlns="http://www.w3.org/2000/svg" xmlns:xlink="http://www.w3.org/1999/xlink" x="0px" y="0px"
	 viewBox="0 0 758.1 481.7" style="enable-background:new 0 0 758.1 481.7;" xml:space="preserve">
<style type="text/css">
	.st0{fill:none;}
	.st1{fill:#FFFFFF;}
	.st2{opacity:0.2;}
	.st3{fill:url(#SVGID_1_);}
	.st4{fill:url(#SVGID_2_);}
	.st5{fill:url(#SVGID_3_);}
	.st6{fill:url(#SVGID_4_);}
	.st7{fill:url(#SVGID_5_);}
	.st8{fill:url(#SVGID_6_);}
	.st9{fill:url(#SVGID_7_);}
	.st10{fill:url(#SVGID_8_);}
	.st11{fill:url(#SVGID_9_);}
	.st12{fill:url(#SVGID_10_);}
	.st13{fill:url(#SVGID_11_);}
	.st14{fill:url(#SVGID_12_);}
	.st15{fill:url(#SVGID_13_);}
	.st16{fill:url(#SVGID_14_);}
</style>
<pattern  y="481.7" width="8" height="8" patternUnits="userSpaceOnUse" id="New_Pattern_2" viewBox="1 -8 8 8" style="overflow:visible;">
	<g>
		<rect x="1" y="-8" class="st0" width="8" height="8"/>
		<rect x="1" y="-8" class="st0" width="8" height="8"/>
		<rect x="4" y="-7" class="st1" width="2" height="2"/>
		<rect x="4" y="-3" class="st1" width="2" height="2"/>
		<rect x="8" y="-7" class="st1" width="2" height="2"/>
		<rect x="8" y="-3" class="st1" width="2" height="2"/>
		<rect y="-7" class="st1" width="2" height="2"/>
		<rect y="-3" class="st1" width="2" height="2"/>
	</g>
</pattern>
<title>Asset 1</title>
<g id="Layer_2" class="st2">
	<g id="Layer_1-2">
		<pattern  id="SVGID_1_" xlink:href="#New_Pattern_2" patternTransform="matrix(1 0 0 -1 0 -16267.3398)">
		</pattern>
		<path class="st3" d="M755.5,58.9c-0.7-0.3-1.5,0-1.8,0.7c-0.1,0.1-0.1,0.2-0.1,0.3c-0.7,1.9-3.6-0.9-4.2-1.8l-0.1-5.2l-5.4,0.1
			l-7.6-25c-1.2-1.3-3.7-1.4-3.8-1.5c-3.5-3.2-5.1,1.5-7.4,2.1c-0.2,0.1-0.2,1.5-0.9,1.7c-3.6,1-3.7-1.4-4.6-3.5l-1.4,0.5L713.1,41
			c0,0.8-0.1,2.3,0,3c0.5,6.3-1.3,4.1-1.3,6.8c0,6.3,2,3.7,2,6.2l-3.6,7l-0.7,7.2c-0.5,0-2.4-1-3.6-0.2c-1.8,1.4-0.4,2.8-2.5,0.5
			c-0.8-0.8-1.9,5.4-1.9,5.8l-21.8,5.8l-9.2,2.8l-10.9,2c-0.2,0.6-3.7,5.1-4.4,5.9c-2.7,3.3-3.5,5.8-4.5,7
			c-2.7,3.2-10.7,5.6-1.8,8.6c0.3,0.9-1.5,3.9-0.7,4.9c4.3,6.1-5.2,2.4-5.7,8.2c-0.1,0.9-10.5,3.5-10.9,3.4
			c-5.8-1.2-12.8,0.5-18.5,2.8c0.5,1.6,3.2,5.7,3.4,6.7c3.7,0.8-7.5,11.6-9.6,13.8l-0.1,0.1c0,0.1-0.1,0.1-0.2,0.2
			c-2.3,1.1-3.6,3.6-3.8,3.7c-3.1,1.6-2.3,1.7-4.5,3.3c-0.6,0.4-3.4,1.7-3.4,1.8c-1.2,1.6-6.3,1.7-7.3,4.5
			c-1.7,4.8-15.2,7.9-15.3,7.8c-8-5.7-7.6,1.9-12.2-3.8c-1.1-3.5,1.7-6.3,1.9-6.6c0-2.3-0.6-5.6,2.6-5.9c1.4-5.5-0.9-3.6,4.4-6.8
			l-0.2-5.9c0-2.4-1.1-2.9-1.1-3.5c0.1-2.2-4.6-14.8-5.9-14.7c-6.1,0.5-5,2.6-5.5,3.2c-0.7,0.8-3.5,5.5-3.6,5.6
			c-3.5,2.9-6.6-4.6-3.9-6c4.8-2.4,2.3-0.7,3.3-5.8c4.7-1.1,2.1-6.4,2.2-6.8c0.4-5.6-3.5-4.7-2.5-7.3c0.2-1.4,2-0.8-0.2-2.7
			c-1.5-4.8-3.1-1.5-5.6-3.6c-2.3-1.9-10-3.4-10.1-3.5c-2.8-2.2-6.4-0.6-6.4,3.2c0,1.9,6.8,4-0.8,4c-3.7,0,0.6,9.8-2.5,10.1
			c-5.5,0.5-2.5-1.6-2.2-4.4c0.8-6.6,0.1-1.1-1.7,0.2c-5.3,3.7-1.7,1.4-3.3,6c-3.5,0.8-1,7.3-2.6,9.9c-2.1,3.6-0.2,6.9-0.9,8.2
			c-1,1.8-0.1,5.7,0.1,5.9c2,2.3,5.3,10.5,5.5,10.6c1,1.1-1.3,11.4-1.6,11.7c-2.9,2.5-0.4,6.9-5,8.8c-3.2-0.3-1.9,6.2-9.2,2
			c-0.5-1.5-1.5-0.2-1.8-2c-0.9-7.5-4-3.9-4-12c0.1-1.6-1.3-11.3-1.4-11.4c-2.4-3.1,1.8-9.3,1.1-10.1c-1.7-2.4,1.3-10.5,1.1-10.8
			c-2.1-5.1,5.2-13.5,5.2-18.8c0-1-6,8-7.2,9.6c-0.2,0.2-5.2,8.2-5,4c0.2-4.8,2.2-6.7,4.8-10.2c0.7-0.7,4.8-9.5,4.9-10.8
			c0.1-2.6,2-5.2,2.2-3.1c0.2,2.5,3.3-0.5,4.1-0.6c0.3,0,2.9,3.2,3,0.6c0.2-5.5,7.8-3,8.8-4.2c4.4-5.5,10.9,0.4,13.2-1.3
			c2.6-1.8,5.3-1,8.3-0.9c1.5,0.1-1.4-2.5-1.9-2.9c-3.3-2.9-0.6-2.5-1.1-5c-0.8-3.8-2,0.1-7,0.1l-2.5,0.6l-2.2-1.2v-4.2
			c-1.8,0-5.5,2.6-7,2.5c-8.3-0.3-5.4-0.2-10.9,3.4c-5.9,3.8-4.7,1.4-5.9,1.4c-6.5,0.3-3.7-0.3-6.4-1.5c-2.1-0.9-1.9-3.3-4.4-4
			c-8.4-2.4-4.6,0.9-7,1.1c-5,0.4-0.2-2.8-0.3-4.3c-0.1-2.5,2.5-4.9,4.6-5.6c4.7-1.5,2.7-4.2-3.2-1.4c-5,2.3-4,4.1-6.3,5.4
			c-4.3,2.4,1.6,2.8-7,5.4c-0.8,2-6.2,1.5-6.3,2.4c-0.6,3.7-3.5,0.9-5.9,4.8c-4,1.4-2.8-0.6-4.4-0.6c-8.3,0.4-0.8-4.5-1.4-5.9
			c-2,0-14,8.6-17.2,4.4c0.6-2,1.9-3.6,2.4-3.6c3.6-0.4,4.1-3.4,5-3.9c4.1-2.1,6.1-9.3,9.4-10c1.4-0.3,7.2-3.8,7.3-3.8
			c2.9,0.1,4.9-1.6,7.2-3.1c-0.2,0-0.4,0-0.6,0c-2.2-1.1-1.4,0.7-5.3-0.1c-0.4-1.8-6.7-1.6-6.8-1.6c-4.4,2.6-2.9-3.2-6.5-0.2
			c-3.4,2.8-1.9,3-6.6,1.7c-3.4-0.9-1.4-2-2.4-2c-2.3,0.1-3.4-2.2-3.8-2.1c-2.5,0.6-1.3-0.3-2.7-0.4c-1.6-0.1-7.5-4-7.5-4
			c-2.9,0.3-2.5-0.7-3-0.8c-3.4-0.7-0.8,3.8-8,2.1c-0.3-2.9-4.4-1.2-5-1.9c-1.3-1.5-1.9,0-3.9-1c-2.8-1.3-2.5-4.6-3-5.7
			c-1.1-2.6,0.5-6.4-3.7-6.3l-0.1,7c-8.8,0-17.4,0-25.9-0.1c-28.4-0.4-55-1.7-81.9-4.1c-43.7-4-88.2-10.9-143-21.6l-11.8-2.4L71.6,0
			c-1.7,0.6,1.4,5.8,1.8,7.2c0,0.2,0,1.3,0,1.4c-0.2,1.4-1.3,0.6-1.3,6.1c0,2.3,1.3,4.1,1.1,4.4c-1.6,2.7-3-1.9-3.5-2.8
			c-0.3,0-0.7-0.6-0.7-0.6c-1.1-4.1,1.3-1.2,1.3-4.4c-0.7-2-3.1,2.9-3.2,3c-5.2,0-9.8-2.8-14.5-4.9c-2.9-1.4-3.7-2.9-4.8-3.5
			c-0.5-3-3.1-2.5-3,0c0.1,2.8-1.7,6-0.3,7.4c1.8,1.8-1.2,14.9,2.5,16.7c4.8,2.4-2.9,0.3-2.9,2.7c0,3.2,6.5,4.4-0.6,6.7
			c-2.1,0-0.6,3.3-0.1,3.2c-0.1,1.7,2.2-1.2,4.7,2c-5.2,0.9-8.6,6.1-8.9,9.6c-0.7,7.8-3.9,9.4-4.1,11c-0.8,8.9-10.6,26.5-16.6,33.8
			c-3.6,1,0.5,5.8-0.8,7.7c-3.5,4.9,0.3,10.2,0.3,10.2c-3.3,2.6,0.2,8.5-3.5,15.1c-1.8,3.2-0.4,3.3-4.2,6.3c-1.9,1.5,0.6,0.6-2.1,2
			c-0.2,0.1-3.3,5.4-1.7,7.7c2.7,3.8,5.3,12.2,2.3,16.3c-0.1,0.2-0.6,5.8-1.2,7.2c-0.4,0.9,5,12.8,5.9,15.1c1.3,3.7-1.9,2,1.9,7.3
			c5.9,8.3-0.2,6.3,1.4,14.5c0,0,0.4,0.7,0.4,0.8c3.2,7,7.6,2.6,6.3,8.9c-0.5,2.6-6.5,1-3.7,9.3c2.6,1,4.8,16.1,9.4,20
			c0.8,2,1.4,4.2,1.8,6.3c0,6.8-5.5,10.1,3.8,11.7c2.5,0.4,4.2,3,9.3,2.8c2.7-0.1,2.6,8.7,8.1,9.7c2.2,0.4,8.3,2,5.3,5.5
			c-0.3,0.1-0.6,0.3-0.9,0.3c0.7,4.6,4.6-2.2,8.4,5.5c1,2.1,3.1,2.2,3.9,5.4c1.3,5.2,2,0.6,2,10.3c0,1.1,0.2,2.7,0.2,4.4l37.5,5.4
			c0,0.1-1.5,1.9-1.7,2c-0.5,0.5-0.6,0.7-0.5,1.3s1.7,1.7,2,1.7l50.1,29.2l31.4,4.6l12.1,1.4l1.1-8.1l24.6,3.3
			c0.7,0.1,3.1,1,3.5,1.6c0.7,1,1.4,2,1.8,3.1c0.7,1.9,0.2,2.3,2.9,3.1s1.6,3.1,3.7,4.7c0,0,1.5,1.7,1.5,1.7
			c0.4,0.7,4.5,5.3,5.1,5.3c1.1,0,3.3,0.8,3.7,2.3c0.6,2.3,2.5,0.7,2.4,3.3c0,0.9,1.1,2.3,1.4,3.3c0.5,0.9,0.9,1.8,1.2,2.8
			c0.9,7.5-1.6,7.1,4.7,13.2c1.6,1.5,3.2,4.3,5.8,4.4c1.9,0.1,3.2,3.7,4.7,4.1c0.9,0.2,2.6,1.4,3.4,1.6c0.9,0.3,1.8,0.8,2.7,1.3
			c0.2-0.2,4.2-4.6,4.5-5c0.8-1.6,1.2-1.1,1.4-3.3c0.2-2.9,3.2-4.8,5.6-5.5c0.3-0.1,4.1-1.6,4.1-1.6l2.1,1.8
			c2.6,0.5,5.9,0.2,8.4,0.8c2.7,0.6,3.9,0.4,5.9,2.6c0.5,0.5-0.4,0.9,1.9,3c0.8,0.9,1.6,1.7,2.5,2.5c0,0,0,0,0.1,0.1
			c3.8,2.8,1.6,1.5,3.6,4.6c0.4,0.6,1.2,0.2,1.2,2.9c0,1.2,1.7,4.1,2.1,5.5s2.5,5.1,2.5,5.9c0,2.4,0.1,2,2.7,3.1l0.1,0.1
			c0.4,0.8,1.8,2.5,1.9,3.4c0.9,1.7,1.9,3.3,3.1,4.8c2.5,2.5,3.8,1.4,5.3,4.2c0.7,1.4-2.4,4.5,0,4.8c1.4,0.2,0.5,3,0.2,3.7
			c-0.5,1.2-0.6,0.7,0.4,1.7l0.5,0.5c3,1,2.2,3.8,2.9,6.2c0.4,1.3,1,2.4,1.8,3.5c2.1,1.1,4.3,2,6.5,2.7c2,0.5,3.7,0.3,5.2,1.7
			l1.6,1.5c3,1.4,7.2,0.1,9,1.8c0.3,0.3,4.4,3.3,4.8,2.3c0.2-0.2,0.5-0.4,0.8-0.6c1.3-3.1-1.8-11.8-2.9-15.4
			c-1.5-4.8,6.5-14.6,2.2-17.6c-2.4-1.7,4.6-0.6,5.6-4.3c0.7-2.3,6.8-2.6,9.4-6.1c1.6-2.1,14-5.5,20.2-11.9c3.9-4,4.1-2.5,8.2-7.6
			c0.5-0.6,11.6-5.4,13.2-5.4c0.4,0,0.8-0.1,1.2-0.2c3.7-1.4,0.3-1,5.8-1.7c1.4-0.2,8.5,1.7,9.8,2.4c7.8,4,10.9,0.1,12.4,1.1
			c4.4,3.1,6-2,1.3-1c-2,0.4-5.1-0.2-3.6-2.4c1.5-2.4,2.5,1.9,5.2-0.1c1.8-1.2,4.5,2.4,4.5,2.5c-0.1,3,6.6,1.1,5.3,3.3
			c-2.4,4.1,1.1,3.4,3.3,5.4c1,0.4,5.8,2.5,6.4-1.1c0.1-0.4,5.6-5.1,5.6-0.1c0,4.1,4.3-2.2,2.4-2.6c-1-0.2,0.8-3.2,1-3.2
			c2.1,0.1,3-3.5,2.9-1c-0.2,5.7,2.5,1.6,6.9,5.5c1.1,1,4.5,1.5,4.8,1c2.3-3.9,1-2.5,0.3-3.3c-2.8-3.2-11.7-2.4-10.4-5.4
			c2.2-5.1,2.4-2.3,3.5-3.1c4.1-3,1-1.3,1-5.9c-1.8,0.7-3.2,1.5-3.2,3.9c-7.6,0,0-5.4,0.2-6c1.2-1.1,2-3.8,2.7-3.8
			c6.7,0.3,3.5-0.4,7.3-1.2c0.3-1.6,3.1,2.5,8.3,0.3c0.6-0.2,1.1-0.3,1.7-0.4c2.1,0,3.9-3.2,4-4.4c0.2-4.5,3.9,2.3,4.1,3.1
			c0.5,1.5-0.3,2.2-1.4,2.8c-2,1.2-0.4,0.9,0.7,0.8c2.8-0.2,5.1-1.8,6-1.9c4.7-2,4.3-1.3,9.1-2.3c1.9-0.4,8.2-1.1,9.9-0.1
			c1.6,0.9,4.1,0.1,8.7,2.9c3.5,2.1,6.6,2.2,6.6,7.1c1.4-2.7,5,0.6,8-2.3c1-0.9,4.5-3.6,6-3.5s-3.3-6.4,8.3-3c5.4,1.6,2.3,3.5,7.3,5
			c1.6,0.5,0.1,2.6,2.5,3.9c4.7,2.5-0.4,2.2,8.6,4.3c0.6,0.1,2,5,3.7,5.4c0.5,1.4,0.8,8.2,0.2,9.4c-2.9,6.2,1.9,13.3,2.1,11.9
			c0.6-3.5,2.6-2.1-1-4.2c-2.7-1.6,9.9-3.8,2.4,5.5c-0.5,0.6-1.1,1.2-1.6,1.7c0.3,1.4,7.5,8.2,8.6,12c0.2,0.7,4,9.3,5.2,5.2
			c0.9-3.4,4.6,2.6,4.5,6c0,0.4,2.6,4.6,3,3.2s6.6,0.7,8.2,4.3c1,2,1.6,4.1,2,6.2c0.8,3.6,6.4-0.4,6.9-0.4c2.1,0,5.9-2.2,5.7-4.5
			c0-1.6,0.1-3.2,0.4-4.8c0.2-2.1-1-1,1.2-2.2c1.7-1,0-4.5,0-5.3c0-5,0-13.5-2.6-17.5c-1.2-1.9-1-2.8-2.7-5
			c-1.1-1.4-2.3-5.3-3.6-6.1c-0.1-1.3-0.6-2.5-1.5-3.4c-1.9-2-3.3-4.4-3.9-7.1c0-4.2,3.3-1.9-0.2-5.4c-1.4-1.4-3.3-2.3-4.7-4.6
			c-1-1.5-3.6-3.9-4.2-5.7s-5.9-9.7-7-13.4c-0.7-2.1-4-8.6-4.1-10.3c-0.1-0.6-0.3-1.3-0.5-1.9v-1c0.4-1.8,0.3-3.4,0.6-5.3
			c0.3-1.7,0.6-3.2,0.9-4.9c0,0,1.5-5.1,1.5-5.1c0.7-1.4-0.6-2.5-0.2-3.1c0.5-0.7,0.9-1.5,1.3-2.3c1.3-2,1.3-1,1.8-3.8
			c0.1-0.1,1.7-1.7,1.9-1.9c5.2-5.7,2.3-2.8,2.3-6.9c6.6,0,3-2.3,6.7-3.1c0,0,4-4.8,4.2-5.1c1.4-4,3.7-3.4,3.8-3.8
			c1.5-4,2.8-2,2.8-6.1c0-1.1,1-5.4,1.5-6s2.5-4.1,2.5-4.1c0.4-0.7,1.5-2,2.2-2.1c0.1,0,3.5-1,3.8-1.1c2.4-1,3-0.7,5.2-1.1
			c1-3,0.7-4.6,2.7-8.1c1.5-2.3,11.2-11.1,13.5-9.4c3.5,2.5,6.4-6.3,4.6-4.9c-2,1.6-0.8-1.6-3.2-1c-4.6,1.1,1.5-5.4-1-5.3
			c-2.7,0.1-2-2.8-1.7-2.5c2.6,3,8.6,0.3,8.9-2.4c0.3-3.2,5.2-3.6,1.3-7.4c0.9,0.4,2.8-0.4,2.3-0.9c-2.2-1.9-4.8-8.6-6.7-11.7
			l-3.4-5.9c-1.6,0-1.4,0.6-2.5,0.6c-8.5,0,0.2-0.1-2.8-4.4c-3.9-5.6-4.5-4.4-0.8-4.4c1.4,0-0.2-4.2-0.3-4.2c-2.6-1.3,1.1-4.2-1-4.9
			c-1.7-0.8-3.3-1.6-4.8-2.6c-4.2-0.8-1.6,1.1-5.9-1.6c-0.5-0.1-1.1-0.2-1.5-0.5c0.5-0.1,1-0.2,1.5-0.1c1.3,0.9,4-0.5,4.9,0.1
			c3.5,2.3,3.8-0.7,3.5-1.1c-1.5-1.6-1-2.7-1.4-3c-1.1-0.9-2-2.1-2.7-3.4c-0.7-1.3-0.3-5.5,0.2-6.2c1.2-1.7-1.4-3.4-0.2-4.5
			c1-0.9,0.5-2.7,1.3-3c2.4-0.8,1.7-1.3,2.3-1.6c1.7-1.1-1,3.4-1.1,4.1c-0.5,4.3,2-0.9,2,5.1c0,0.6-0.1,1.1-0.3,1.6
			c-2.4,1.6-0.7,2.8-0.3,2.1c0.8-1.6,2.1,1.3,1.4,1.6c-1.4,0.7-1.2,3.2-1,3.5c1.5,1.9,1,2.6,3.5,2.6c0.5,0,3-0.4,3.1-0.4
			c2.1,1.2,0.7,4.9,3.8,4.2c0.5,1.2-0.3,6.1-1.2,6.6c-1.1,0.6-1,3.8-0.8,5.1c1.2,8.6,2.7,2.3,2.9,2.1c2.3-2.1,1.1-9.7,1.8-10.5
			c1.4-1.7,2.5-3.7,3.1-5.8c0.3-0.8,0.5-1.7,0.6-2.6c0.4-3,0.2-2.4,0.2-5.2l-1.8-6c-1.2-0.4-0.4,0.2-2.3-0.8c-0.8-0.4-3-3.4-3.2-4.3
			c-0.3-2.4-0.7-3.1-2.6-4.2s-3.5-4.7-1.1-4.7c0,0.3,0.1,0.7,0.2,1c0.3,1.4,1,1.4,1.5,2c1,1.4,2.4,2.4,4.1,2.8c2,0.6,2.4,1,4.7,0.8
			c1.4-0.1,0,1.9,0,2.4c0,0.7-0.5,2.7,0.7,1.9c2.6-1.8,1.5-5.6,2.5-6.2s4-6.3,4.2-7.4s1.7-4.8,1.2-5.5c-1-1.4-0.6-5-0.6-6.8
			c0-3.1,0.2-1.5-1-3.7c-0.6-1.1-1,0.1-1.8,0c-1.7,0-1.9,0.4-1.6-0.9c1-0.7,1.9-1.6,2.5-2.6c1.2,0,6.2-0.9,6.8-1.5
			c1-0.9,5.6-1.7,5.9-3c0.1-0.5,2.2-1.4,2.6-1.6c1.3-0.5,1.6-1.4,2.3-1.6c1.4-0.3,1.9-1.5,2.8-2l2-2c1.8-1.2-2.2-2.4-2.6-2.2
			c-1.8,1.1-1.9,2.9-4.5,3.7s-3.4,2.2-6,2.6c-1.3,0.2-1.7-0.3-2.7-0.3s-3.4,4.5-4.9,3.5c-1.1-0.8,0.6-2,1-2.5c0.9-1.1,0.4-1.1,0-1.6
			c0.2,0,6.2-4.1,6.2-4.2c3.9-5,2.6-1.4,4-2.2c0.7-0.4,5.2-1.9,5.2-2c1.1-1.6,7.1-2,7.3-3.4c0.1,0,0.8-0.1,0.9-0.2
			c1.3-0.4,0.8-0.4,1.8-1c0.8-0.5,1.5-1.1,2-1.9c0.7-0.9,0.5-0.6,1.6-0.8c1.3-0.2,1.2-0.9,2.3-1.5c0.1,0.1,1.7,0.2,1.8-0.7
			c0.6-2.4-1-2.6,2.5-3.9c1.8-0.7,0.4,3.3,2.2,2.1c0.3-0.2-0.1-0.4,0.8-0.8c1-0.7,2.1-1.4,3.3-1.9c0.6-0.3,1.2-0.5,1.9-0.5
			c0,0,2-0.6,2-0.9c0-0.8-0.9-5.1-1.7-5.4c0,2.7,0,3.4-2.3,4.8c-0.7,0.4-3.8,0.4-4.1-0.5c-0.7-0.1-1.6-3.1-2.7-3.9
			c-1.9-1.6-1.1-2.8-3.9-2.7c-0.1,0-0.6,0.5-0.9,0.5c-1.8-1-1.1-4.3-0.3-5.7c1-1.9,1.7-1.8-0.8-4.2c0,0-0.8-1.2-0.8-1.2l0.8-4.2
			c1.8-2.6,1.2-7.2,1.8-9.1c0-1,1.6-1.6,0.9-2.7c-1.1-1.8,2-4.7,2.5-3.6c1,1.8,6.5-2.6,6.5-2.9c-0.2-4.8,4.2-0.5,3.6-5.1
			c-0.6-5.1,0.6-2.4,0.6-5.3l-1.6-1.2l2-1.2c0.3,0,0.5,0.2,0.6,0.5c1.7,3.8,2.6-0.1,2.6,4.5c4.2,0-1.4-4.8,3.1-6.3
			c0.5-0.2,2.9-2.9,3.2-1c0.4,3.2,2.3-0.4,3.4-1.1s4.9-5.1,5-5.1C759.4,69.1,758.5,61,755.5,58.9z"/>
		<pattern  id="SVGID_2_" xlink:href="#New_Pattern_2" patternTransform="matrix(1 0 0 -1 0 -16267.3398)">
		</pattern>
		<path class="st4" d="M79.3,450.4c-3.2-0.1-1.2,2.1-5.7,3.7c-1.5,0.5-4.3,2.5-4.3,4.2c0,3.5,0.5,2.5,0.6,3.1c0.4,2,4.6-0.5,6.6-0.9
			c4.3-0.9,2.2-5.8,0.8-5.7c-3.3,0.1,5.2-0.9,2.9-3.2C79.5,450.9,79.8,450.4,79.3,450.4z"/>
		<pattern  id="SVGID_3_" xlink:href="#New_Pattern_2" patternTransform="matrix(1 0 0 -1 0 -16267.3398)">
		</pattern>
		<path class="st5" d="M170.1,469.4l-8.4-3.1c-1.6-2.8-0.9-3.6-3.8-5.6c-0.4-0.3-1.8-5.5-3.9-6.9c-1.2-0.8-0.1-0.6-2.8-2
			c-0.7-1.3-1.7-2.3-2.9-3.1c-1.4-0.9,0.2-6.1-5.3-2.8c-0.7,0.4,0.4,2.4-3.1,4.8c-3.1,2.1-2.6-0.7-2.8-1c-0.6-0.9-0.4-1.8-2.4-2.8
			c-0.6-0.3-2.9-2.5-2.9-3.8c0-5-3.6,1.1-6.2-1.1c-0.1-0.1-1.3-0.6-1.5-0.6l0.3-71.4c-12.9-7.4-5.4-1.3-11.9-2.6
			c-1.9-0.4,0.8-2.4-5-1c-0.9,0.2-3.2-4.3-9.3-4.1c-5.2,0.2-0.6-7.8-6.9-4c-1.5,0.9-0.7-4.6-5.6-4.8c0,0-6.5,5.1-7.2,1.7
			c-2.2-0.8-1.2,2.8-6.9,1.6c-5.9-1.2-1.4,7.2-11.7,7.2c-2.1-0.1-4.1,0.3-6,1.2c0,0.9,4.4,7.3,4.3,10.7c-0.2,3.8,3.2,2.5,2.8,5.5
			c-0.2,1.9,6.3,9.9-4,4c-2.8-1.6,4.1-5.6-5.8-4.3c-0.5,0.1,0.5,2.7-2.7,0.8c-0.1,0-10.5-1.2-5.6,3c2,1.7,1.8,5.7,2,8.2
			c0.2,1.9,10.9,5.8,14.6,3.2c2.2-1.5,1.4,9.7-2,9.7c-6,0-2.4-1.8-7.7,1.4c-0.7,0.4-2.2-5.8-7.2,0.5c-0.1,0.1-1.6,1.2-1.6,1.2
			c-1,2.2-8.6,5.4-2.6,9.6c1.9,1.3-2.9,4.2-2.9,4.2s1.3,3,1.6,3.8c3.3,9.4,10.2-3.4,8.4,5.5c-0.3,1.6,2.5,2.5-0.5,3.1
			c-0.3,0-3,7.8,1.5,5.1c1.1-0.5,2.4-0.5,3.5-0.1c0.6,1.6,3.4,1,4.5,5.5c0.2,0.9,0.7-1.9,1-2.8c2.6-0.9,0.3,3.7,6.6,0.2
			c-0.8,2.4-5.3,11.5-7.6,11.5c-2.5,0-0.8,3-2.9,2.9c-0.4,1-5.7-0.8-7.3,2.3c-2,3.9-4.1-1.3-7.2,1c-1.5,1.2-2.1-0.4-3.1,1.6
			c-0.8,1.7-6.9,2.9-8.4,2.1c-2-1.1-6.2,1.7-3.1,3c1.7,0.7,0.5-1.7,3.4-0.6c5.4,2.1,3.4-1,8.1-0.8c0.7,0,4.4-2.1,5.3-0.4
			s3.1-2.2,6-1.8c0.9,0.1-1,2,2.2-0.1c0.7-0.4,5.4,1.3,4.9-1.9c0-0.1-2.6-1.3,1.4-1.6c0.1,0,3.7-1,4.8-1.3
			c1.4-0.3,12.6-6.6,13.3-7.5s5.8-3.7,3.2-5.3c0,0-2.6-0.4-1.4-2.7c0.8-1.6,4.3-0.9,6.8-4.7c0.9-1.4,2-2.7,3.2-3.9
			c0.8-0.6,0-0.9,2.2-1.6c0,0,5.9-3.6,6.2-1c0.1,0.5,1.8,2.3-1.6,1.6c-0.1,0-2.2-2.4-4.3,0.9c-0.5,0.7,0,2.6-2.3,4.7
			c-0.2,0.1-1.3,2.5,0.7,2.6c0.1,0,1.6,1.5-1.4,1.8s-0.3,4.2,4.7,1.1c1.7-1,3.2-2.3,4.5-3.7c0.9-0.9,2.1,1.5,4.2,0.1
			c1.1-0.8,1.8,4.9,3.9,0.1c0.6-1.5,2.3-1.5-1-1.7c-0.1,0-1.5-2.9-0.9-3.5c1.3-1.1,6.2-3.3,6,0.3c-0.1,2.7,3.5,2.8,5,4.1
			c1.2,1.1,2.8,1.7,4.5,1.6c1.6,2,4.8-0.3,8.2,1.8c3.9,2.5,7.3-1.4,7.3,0.2c0,1.9-1.9,2.4,0,3.4c2.2,1.2,5.6,2.3,7,4.4
			c1.2,1.7,3.5,3.5,5.7,3.5c2.4,0-2.8,1.6,0.7,3.5c1.4,0.7,1.3,6.1,3,6c2.4-0.1,4.5,9,4.3,1.7c0-1.1,1-3.1,1.4,1.3
			c0.2,1.8,1.4,4.8,2.5,1.3c0.6-1.9,1.3,0.6,0.5,1.6c-0.6,0.9,0.7,2.3,0.7,2.3c0.5,2.8-1.9,2.9,0.9,3.1c0.4,0,5.4,9.5,2.9,2.5
			c-0.8-2.1,0.6,0,1.9,0.7c2.2,1.2,2.5,1.8,1.9-2.8c-0.1-0.8-2.2-3.8,1.8-1.2c0.7,0.4,3.7,3.6,3.8,3.6c2.6-3.9,2.2-3.8,1.4-9
			C170.4,470.2,170.3,469.4,170.1,469.4z"/>
		<pattern  id="SVGID_4_" xlink:href="#New_Pattern_2" patternTransform="matrix(1 0 0 -1 0 -16267.3398)">
		</pattern>
		<path class="st6" d="M25.3,390.5c0-0.1-0.4-0.1-0.4,0.1c0,0.4-0.8,0.7-0.9,1.6c-0.2,2.4,0.6,1.5,1.6,1.7c1,0.3,1.9,1,2.2,2
			c0.3,0.5,0.6,1.1,0.9,1.6c0.2,1.3,1,1.1,2,1.4c1.4,0.4,1-0.8,0.5-1.5s-0.6-1.5-0.9-1.8c-0.3-0.5-0.5-1-0.6-1.5
			c0-0.1-2-0.9-2.2-0.9s-1.4-0.9-1-1C26.6,392.2,25.3,390.8,25.3,390.5z"/>
		<pattern  id="SVGID_5_" xlink:href="#New_Pattern_2" patternTransform="matrix(1 0 0 -1 0 -16267.3398)">
		</pattern>
		<path class="st7" d="M12.3,466.7c-1,0-1.5-0.2-1.6,0.9c-0.1,1.3,0,0.6-0.6,1.8c0,0.1-0.1,0.2-0.2,0.2c-1.1,0.9,0,0.8,0.2,0.9
			c1-0.1,2.1-0.3,3.1-0.5c0.7-0.1,0.3-0.1,0.7-0.3c0.5-0.3,0.7-1.1,0.3-1.6c0,0,0-0.1-0.1-0.1C13.8,467.6,12.8,466.7,12.3,466.7z"/>
		<pattern  id="SVGID_6_" xlink:href="#New_Pattern_2" patternTransform="matrix(1 0 0 -1 0 -16267.3398)">
		</pattern>
		<path class="st8" d="M28,421.8c-0.3,0-0.3-0.1-0.4,0.1c0.1,0.9,0.3,1.8,0.8,2.6c0.6,0.5,1.7,1.9,2,2.1c0.7,0.5,1.4,0.1,2.2,0.1
			c0.7,0,0.8-1,1.3-1.7c0.3-0.4,0.3-1.5-0.5-1.8c-0.4-0.2-0.7-0.3-1.1-0.4c-0.5-0.2-0.9-0.3-1.4-0.4C30.1,422.4,28.7,421.8,28,421.8
			z"/>
		<pattern  id="SVGID_7_" xlink:href="#New_Pattern_2" patternTransform="matrix(1 0 0 -1 0 -16267.3398)">
		</pattern>
		<path class="st9" d="M5.3,468c-1.1-0.2-2.4,0.8-2.9,0.9c-0.9,0.2-1.8,0.8-2.4,1.5c-0.1,0.1-0.1,0.2,0,0.3c0.4,0,0.9,0,1.3-0.1
			c0.5-0.2,1.1-0.3,1.6-0.4c0.5-0.2,1.1-0.4,1.7-0.5c1.2-0.6,0.9-0.1,1.5,0s0.8,0,1-0.4s0.2-0.4,0-0.9C7,468.4,5.7,468,5.3,468z"/>
		<pattern  id="SVGID_8_" xlink:href="#New_Pattern_2" patternTransform="matrix(1 0 0 -1 0 -16267.3398)">
		</pattern>
		<path class="st10" d="M242.1,436.3c-0.9,0.8-1.4-0.1-1.9-0.1c-0.9-0.1-1.6-0.5-2-0.5c-0.6-0.1-0.7,0.2-0.7,0.8
			c0,0.8,2,1.1,2.7,1.5c1.4,0.7,1.4,0.3,2.8,0.5s1.4-0.1,2.4-0.1s1.3-1,1.6-1.8C245.4,436.2,243.7,436.2,242.1,436.3z"/>
		<pattern  id="SVGID_9_" xlink:href="#New_Pattern_2" patternTransform="matrix(1 0 0 -1 0 -16267.3398)">
		</pattern>
		<path class="st11" d="M259.1,442.7c0,0-0.8-0.6-0.9-0.6c-0.5-0.4-1-0.8-1.5-1.1c-1.1-0.6-2.4-0.9-3.6-0.9
			c-0.5-0.1-1.1-0.3-1.5-0.6c-1.2-0.5-1.7-1.2-2.7-1.6l-1.7,2.1l3,4.4c0.2,0.3,0.5,0.6,0.8,0.8c0.9,0.6,1.1,1.4,2.2,1.4
			c1-0.2,1.9-0.4,2.8-0.7c1.3-0.2,2.5-0.7,3.6-1.4C260.7,443.9,259.4,443.1,259.1,442.7z"/>
		<pattern  id="SVGID_10_" xlink:href="#New_Pattern_2" patternTransform="matrix(1 0 0 -1 0 -16267.3398)">
		</pattern>
		<path class="st12" d="M244.1,440.6c-0.8-0.2-1.6-0.4-2.4-0.4c-0.1,0-0.1,0-0.1,0c-0.3,0.7-0.3,1.5,0.2,2.1c1.7,3.2,1.6,1,2.7,1
			c0.5,0.1,1-0.3,1.1-0.8c0-0.2,0-0.3-0.1-0.5C245.1,441.7,244.6,440.8,244.1,440.6z"/>
		<pattern  id="SVGID_11_" xlink:href="#New_Pattern_2" patternTransform="matrix(1 0 0 -1 0 -16267.3398)">
		</pattern>
		<path class="st13" d="M189.4,421.1c-2.9-0.1-3.6,5.3-0.6,2.4C189.3,423,190.9,421.1,189.4,421.1z"/>
		<pattern  id="SVGID_12_" xlink:href="#New_Pattern_2" patternTransform="matrix(1 0 0 -1 0 -16267.3398)">
		</pattern>
		<path class="st14" d="M279,465.3c-0.1-0.2-1.5-0.9-1.9-1.3c-1.1-1.2-0.7-1.4-1.2-2c-1.2-1.8-1-3.6-3.1-4.6l-1.6-0.9l-9-4.3
			c-0.3,0-1,0.6-1.1,0.8c-0.9,1.2,1.1,3,1.2,3.4v0.1c0.1,0.4-0.3,0.8-0.4,1.1c-1.6,2.9-2.7,2.2-3.4,2.9c-0.2,0.8,0,1.7,0.4,2.5
			c1.1,0.9,2.9,4.2,2.5,5.7c-0.5,1.8,0,2.9,0,4c-0.1,2.7,0.8,2.2,0.9,2.6c1.6,0.5,1.7,1.6,3.1,1.3l0.5-0.3l0.5-0.4l2.1-3
			c0.7-0.8,1.6-1.6,2.5-2.2c1-0.8,1.4-0.1,1.9,0c1,0.1,1.1-0.2,1.1-0.2c1.1-0.2,2.2-0.7,3.1-1.4c0.7-0.4,1.3-0.8,1.9-1.2
			C280.1,467.1,280.3,465.4,279,465.3z"/>
		<pattern  id="SVGID_13_" xlink:href="#New_Pattern_2" patternTransform="matrix(1 0 0 -1 0 -16267.3398)">
		</pattern>
		<path class="st15" d="M198.7,416.6l-3.2,1.9l-0.4,2.5c1.9,1.7,5.9,3.5,7.3,0.2l0.6-2.1l-0.6-2L198.7,416.6z"/>
		<pattern  id="SVGID_14_" xlink:href="#New_Pattern_2" patternTransform="matrix(1 0 0 -1 0 -16267.3398)">
		</pattern>
		<path class="st16" d="M228.7,431.5l-3.4-5.7l-3.1,1.6c-0.2,0.3-0.5,0.5-0.8,0.5c-0.9,0-0.9,2-0.6,2.3c0,0,0,0.1,0.1,0.1
			c0.5,0.6,0.9,1.2,1.3,1.8c0.8,1.5,0.4,0.5,1.1,1.4s2.1,0.4,2.9-0.1c0.2,0,0.7,0.9,1.2,0.9c1.5,0,2.5,0.7,3.5-0.5
			C231.4,432.9,229.2,432.2,228.7,431.5z"/>
	</g>
</g>
</svg>
