<svg xmlns="http://www.w3.org/2000/svg" xmlns:xlink="http://www.w3.org/1999/xlink" viewBox="0 0 758.08 481.67"><defs><style>.cls-1{fill:none;}.cls-2{fill:#fff;}.cls-3{fill:url(#New_Pattern_2);}</style><pattern id="New_Pattern_2" data-name="New Pattern 2" width="8" height="8" patternUnits="userSpaceOnUse" viewBox="0 0 8 8"><rect class="cls-1" width="8" height="8"/><rect class="cls-2" x="3" y="5" width="2" height="2"/><rect class="cls-2" x="3" y="1" width="2" height="2"/><rect class="cls-2" x="7" y="5" width="2" height="2"/><rect class="cls-2" x="7" y="1" width="2" height="2"/><rect class="cls-2" x="-1" y="5" width="2" height="2"/><rect class="cls-2" x="-1" y="1" width="2" height="2"/></pattern></defs><title>Asset 1</title><g id="Layer_2" data-name="Layer 2"><g id="Layer_1-2" data-name="Layer 1"><path class="cls-3" d="M755.53,58.89a1.37,1.37,0,0,0-1.93,1c-.72,1.89-3.61-.92-4.18-1.79l-.12-5.19-5.42.12-7.62-25c-1.19-1.29-3.73-1.36-3.84-1.46-3.54-3.19-5.13,1.55-7.36,2.15-.23.1-.24,1.53-.92,1.73-3.56,1-3.7-1.44-4.62-3.46l-1.38.46L713.07,41c0,.75-.07,2.35,0,3,.55,6.32-1.26,4.1-1.26,6.82,0,6.35,2,3.68,2,6.23l-3.58,7-.69,7.15c-.46,0-2.39-1-3.61-.17-1.78,1.42-.36,2.84-2.49.47-.76-.84-1.92,5.42-1.92,5.82l-21.8,5.75-9.24,2.8-10.92,2c-.21.62-3.69,5.08-4.38,5.95-2.65,3.35-3.46,5.83-4.48,7-2.73,3.2-10.7,5.56-1.82,8.63.31.9-1.46,3.88-.72,4.92,4.32,6.07-5.19,2.42-5.69,8.19-.08.92-10.55,3.46-10.92,3.38-5.84-1.19-12.85.49-18.45,2.77.54,1.56,3.2,5.69,3.41,6.67,3.66.76-7.46,11.57-9.61,13.75l-.14.14a.69.69,0,0,1-.17.18c-2.32,1.15-3.59,3.57-3.82,3.69-3.13,1.56-2.26,1.69-4.49,3.32-.6.41-3.41,1.72-3.43,1.75-1.16,1.56-6.34,1.7-7.31,4.5-1.68,4.84-15.25,7.85-15.31,7.81-8-5.72-7.59,1.94-12.18-3.81-1.08-3.51,1.66-6.27,1.91-6.64,0-2.27-.57-5.61,2.57-5.86,1.41-5.47-.91-3.64,4.4-6.78l-.18-5.86c0-2.35-1.12-2.9-1.1-3.48.09-2.24-4.56-14.77-5.87-14.66-6.14.52-5,2.58-5.53,3.25-.7.84-3.49,5.54-3.57,5.61-3.45,2.94-6.64-4.61-3.93-6,4.77-2.43,2.31-.73,3.35-5.77,4.73-1.09,2.14-6.44,2.17-6.8.44-5.57-3.48-4.65-2.52-7.35.25-1.41,2-.76-.23-2.73-1.52-4.85-3.13-1.54-5.64-3.56-2.32-1.86-10-3.39-10.14-3.47-2.85-2.15-6.4-.58-6.4,3.16,0,1.88,6.76,4-.78,4-3.7,0,.56,9.84-2.52,10.1-5.5.46-2.54-1.56-2.18-4.41.82-6.62.12-1.11-1.71.15-5.31,3.65-1.67,1.39-3.28,6-3.55.82-1,7.29-2.57,9.94-2.1,3.59-.17,6.89-.93,8.18-1,1.75-.08,5.68.08,5.86,2,2.34,5.34,10.46,5.51,10.63,1.05,1.05-1.33,11.4-1.63,11.66-2.91,2.49-.41,6.88-5,8.75-3.23-.26-1.91,6.23-9.25,2-.52-1.51-1.55-.17-1.77-2-.93-7.53-4-3.94-4-12,.15-1.62-1.29-11.26-1.38-11.37-2.38-3.14,1.76-9.29,1.15-10.15-1.69-2.37,1.26-10.5,1.15-10.77-2.12-5.13,5.22-13.47,5.22-18.77,0-1-6,8-7.23,9.56-.17.21-5.19,8.24-5,4,.19-4.82,2.21-6.69,4.79-10.15.68-.69,4.8-9.46,4.88-10.8.15-2.61,2-5.23,2.18-3.14.19,2.5,3.3-.53,4.13-.64.29,0,2.92,3.21,3,.64.23-5.53,7.83-3,8.81-4.2,4.4-5.49,10.87.39,13.22-1.28,2.6-1.85,5.27-1,8.28-.89,1.53.07-1.42-2.51-1.87-2.92-3.26-2.94-.59-2.51-1.1-5-.77-3.78-2,.14-7,.14L530,83.5l-2.18-1.25v-4.2c-1.8,0-5.52,2.55-7,2.49-8.31-.33-5.39-.22-10.89,3.38-5.88,3.85-4.66,1.39-5.91,1.44-6.52.28-3.73-.33-6.38-1.53-2.06-.94-1.92-3.34-4.36-4-8.37-2.39-4.62.89-7,1.06-5,.36-.23-2.75-.27-4.34-.06-2.47,2.45-4.94,4.65-5.63,4.71-1.47,2.68-4.15-3.25-1.43-5,2.3-4,4.14-6.26,5.43-4.31,2.45,1.59,2.8-7,5.43-.76,2-6.18,1.54-6.33,2.37-.62,3.69-3.51.89-5.86,4.85-4.05,1.39-2.83-.64-4.41-.57-8.34.36-.83-4.47-1.37-5.92-2,0-14,8.55-17.2,4.39.59-2,1.93-3.58,2.35-3.63,3.6-.41,4.12-3.44,4.95-3.86,4.12-2.1,6.14-9.32,9.4-10,1.41-.29,7.19-3.83,7.31-3.82,2.85.12,4.91-1.58,7.17-3.09a2.56,2.56,0,0,1-.62,0c-2.24-1.14-1.37.69-5.3-.12-.36-1.76-6.71-1.6-6.79-1.56-4.44,2.63-2.87-3.16-6.47-.25-3.42,2.76-1.88,3-6.63,1.73-3.4-.88-1.4-2-2.38-2-2.3.09-3.35-2.23-3.84-2.11-2.53.59-1.3-.26-2.71-.37-1.58-.13-7.46-4-7.54-3.95-2.92.27-2.54-.67-3-.75-3.41-.7-.77,3.81-8,2.09-.3-2.94-4.39-1.2-5-1.92-1.3-1.53-1.88,0-3.91-.95-2.82-1.34-2.55-4.6-3-5.65-1.12-2.62.54-6.39-3.68-6.31l-.15,7c-8.83.05-17.43,0-25.88-.08-28.42-.36-55-1.67-81.87-4.1-43.66-4-88.2-10.89-143-21.64l-11.76-2.35L71.55,0C69.89.57,73,5.82,73.38,7.18c0,.25,0,1.25,0,1.41-.17,1.42-1.28.55-1.28,6.09,0,2.26,1.31,4.07,1.09,4.43-1.59,2.69-3-1.86-3.48-2.78-.29,0-.7-.56-.7-.56-1.14-4.13,1.27-1.23,1.27-4.36-.67-2-3.13,2.85-3.24,3-5.19,0-9.79-2.78-14.5-4.9C49.64,8.15,48.86,6.59,47.78,6c-.47-3-3.09-2.55-3,0,.12,2.79-1.72,6-.33,7.37,1.82,1.82-1.21,14.88,2.55,16.74,4.75,2.36-2.92.27-2.92,2.73,0,3.16,6.51,4.4-.56,6.67-2.12,0-.56,3.27-.14,3.24-.13,1.68,2.2-1.21,4.69,2-5.21.86-8.6,6.11-8.91,9.62-.68,7.78-3.94,9.43-4.07,11-.77,8.93-10.65,26.55-16.61,33.79-3.61,1,.53,5.76-.83,7.67-3.48,4.88.26,10.16.28,10.23-3.31,2.64.16,8.48-3.5,15.12-1.77,3.21-.43,3.29-4.18,6.3-1.86,1.49.6.58-2.15,2-.25.13-3.34,5.38-1.72,7.66,2.71,3.8,5.28,12.18,2.32,16.33-.14.2-.62,5.79-1.21,7.21-.38.92,5,12.77,5.85,15.12,1.34,3.66-1.9,2,1.93,7.31,5.91,8.26-.24,6.28,1.43,14.48,0,0,.38.67.42.79,3.2,7,7.55,2.59,6.27,8.89-.53,2.58-6.49,1-3.72,9.34,2.65,1,4.84,16.11,9.41,20a35.94,35.94,0,0,1,1.75,6.32c0,6.76-5.45,10.15,3.85,11.68,2.53.41,4.21,3,9.26,2.84,2.68-.1,2.58,8.73,8.08,9.66,2.23.38,8.34,2,5.29,5.53a4.29,4.29,0,0,1-.88.33c.7,4.59,4.59-2.22,8.42,5.49,1,2.09,3.08,2.19,3.88,5.41,1.29,5.19,2,.6,2,10.33,0,1.1.2,2.68.2,4.36l37.5,5.44c0,.09-1.49,1.85-1.66,2-.47.54-.6.71-.51,1.31s1.65,1.66,2,1.69l50.11,29.19,31.38,4.62,12.06,1.35,1.12-8.12,24.64,3.32c.67.09,3.13,1,3.48,1.59a15.13,15.13,0,0,1,1.84,3.11c.68,1.89.18,2.34,2.85,3.12s1.65,3.1,3.74,4.74c0,0,1.46,1.68,1.47,1.69.43.69,4.48,5.27,5.14,5.29,1.14,0,3.29.83,3.7,2.29.64,2.27,2.49.66,2.37,3.32,0,.92,1.11,2.31,1.44,3.27a12,12,0,0,1,1.17,2.82c.87,7.5-1.62,7.14,4.71,13.22,1.61,1.54,3.18,4.28,5.81,4.42,1.94.1,3.2,3.74,4.74,4.11.91.22,2.64,1.38,3.44,1.65a15.64,15.64,0,0,1,2.69,1.26c.23-.16,4.24-4.58,4.45-5,.79-1.57,1.19-1.08,1.38-3.3.24-2.87,3.16-4.75,5.59-5.49.3-.09,4.14-1.57,4.14-1.57l2.15,1.79c2.65.47,5.94.24,8.39.76,2.71.56,3.87.37,5.87,2.58.49.54-.37.91,1.88,3a24.22,24.22,0,0,0,2.47,2.49s0,0,.06.09c3.81,2.82,1.59,1.53,3.6,4.59.39.6,1.25.21,1.16,2.92,0,1.21,1.67,4.08,2.11,5.51s2.5,5.09,2.5,5.94c0,2.39.1,2,2.67,3.11l.1.09c.42.8,1.75,2.49,1.89,3.38a35.06,35.06,0,0,0,3.09,4.77c2.55,2.47,3.75,1.36,5.29,4.24.74,1.38-2.38,4.51,0,4.81,1.43.18.51,3.05.24,3.74-.46,1.18-.61.67.39,1.67l.49.48c3,.95,2.2,3.78,2.93,6.24a12.12,12.12,0,0,0,1.84,3.48,49.87,49.87,0,0,0,6.47,2.7c2,.45,3.67.33,5.24,1.69l1.59,1.45c3,1.38,7.17.06,9,1.79.34.32,4.4,3.34,4.84,2.32a8,8,0,0,1,.75-.63c1.26-3.15-1.76-11.82-2.87-15.38-1.51-4.84,6.47-14.56,2.17-17.58-2.4-1.69,4.56-.56,5.63-4.28.66-2.28,6.81-2.63,9.37-6.06,1.58-2.12,14-5.54,20.17-11.93,3.86-4,4.09-2.45,8.2-7.58.52-.65,11.62-5.4,13.16-5.4a10.15,10.15,0,0,0,1.18-.2c3.73-1.38.3-1,5.8-1.72,1.37-.17,8.47,1.74,9.83,2.43,7.82,4,10.92.12,12.36,1.14,4.37,3.11,6-2,1.32-1-2,.4-5.07-.16-3.65-2.36,1.54-2.39,2.52,1.85,5.23-.08,1.75-1.25,4.55,2.41,4.55,2.46-.12,3,6.58,1.14,5.27,3.34-2.42,4.08,1.07,3.38,3.26,5.36.95.35,5.83,2.53,6.43-1.14.06-.39,5.65-5.15,5.65-.15,0,4.12,4.31-2.24,2.4-2.56-1-.17.78-3.24,1-3.24,2.08.08,3-3.54,2.9-1-.24,5.69,2.55,1.62,6.88,5.53,1.12,1,4.53,1.54,4.83,1,2.31-3.91,1-2.47.31-3.29-2.75-3.23-11.7-2.37-10.39-5.36,2.24-5.1,2.35-2.31,3.48-3.12,4.14-3,1-1.29,1-5.92-1.76.74-3.22,1.55-3.22,3.87-7.58,0,0-5.44.16-6,1.23-1.14,2-3.77,2.69-3.75,6.71.26,3.54-.41,7.27-1.18.33-1.62,3.14,2.52,8.26.27a9.36,9.36,0,0,1,1.7-.35c2.13,0,3.92-3.17,4-4.42.18-4.49,3.86,2.31,4.14,3.07.55,1.46-.33,2.2-1.38,2.8-2.05,1.18-.39.89.65.83,2.79-.16,5.06-1.77,6-1.87,4.73-2,4.32-1.34,9.1-2.33,1.94-.4,8.15-1.12,9.88-.13,1.56.88,4.12.15,8.66,2.91,3.54,2.15,6.6,2.21,6.6,7.15,1.42-2.71,5,.57,8-2.29,1-.92,4.54-3.6,6-3.55s-3.31-6.38,8.28-3c5.41,1.57,2.3,3.45,7.35,5,1.61.5.12,2.63,2.45,3.85,4.73,2.47-.37,2.24,8.59,4.31.59.14,2,5,3.7,5.36.48,1.4.8,8.16.23,9.4-2.92,6.25,1.91,13.26,2.14,11.91.59-3.5,2.58-2.15-1-4.25-2.66-1.57,9.86-3.83,2.37,5.53a22.64,22.64,0,0,1-1.64,1.71c.26,1.38,7.54,8.19,8.61,12,.2.71,4,9.29,5.17,5.17.93-3.39,4.61,2.58,4.47,6,0,.42,2.57,4.64,3,3.23s6.62.69,8.15,4.33a22.27,22.27,0,0,1,2,6.23c.84,3.58,6.39-.38,6.92-.38,2.07,0,5.87-2.17,5.74-4.5a31.51,31.51,0,0,1,.38-4.81c.25-2.06-1-.95,1.24-2.19,1.67-.95,0-4.46,0-5.3,0-5,0-13.46-2.62-17.55-1.18-1.88-1-2.76-2.73-5-1.07-1.38-2.26-5.31-3.57-6.12a6,6,0,0,0-1.48-3.42,15,15,0,0,1-3.88-7.07c0-4.25,3.32-1.86-.21-5.38-1.39-1.39-3.28-2.33-4.72-4.59-1-1.54-3.64-3.91-4.17-5.66s-5.88-9.69-7-13.41c-.66-2.11-4-8.61-4.09-10.28a9.34,9.34,0,0,0-.51-1.87l0-1c.42-1.8.27-3.39.57-5.31.27-1.74.59-3.21.86-4.85,0,0,1.49-5.09,1.5-5.11.68-1.35-.57-2.55-.17-3.08a18,18,0,0,0,1.3-2.3c1.31-2.05,1.33-1,1.85-3.79.11-.15,1.67-1.7,1.87-1.93,5.19-5.74,2.35-2.76,2.35-6.86,6.61,0,3-2.32,6.73-3.07,0,0,4-4.76,4.18-5.14,1.39-4,3.68-3.38,3.83-3.8,1.45-4.05,2.79-2,2.79-6.1,0-1.08,1-5.39,1.49-6s2.5-4.08,2.52-4.09c.37-.68,1.46-2,2.24-2.07.14,0,3.49-1,3.76-1.07,2.42-1,3-.67,5.2-1.08,1.05-3,.72-4.65,2.73-8.15C663,285,672.72,276.24,675,277.89c3.49,2.48,6.39-6.33,4.62-4.87-2,1.65-.76-1.58-3.23-1-4.6,1.08,1.55-5.42-1-5.32-2.74.11-2-2.83-1.69-2.52,2.59,3,8.63.31,8.89-2.44.31-3.22,5.16-3.62,1.35-7.44.91.41,2.85-.42,2.27-.91-2.18-1.86-4.8-8.58-6.73-11.73l-3.4-5.85c-1.58,0-1.41.64-2.55.64-8.45,0,.19-.06-2.82-4.35-3.9-5.57-4.52-4.43-.85-4.43,1.41,0-.25-4.18-.31-4.21-2.56-1.3,1.13-4.22-1-4.85a38.51,38.51,0,0,1-4.79-2.62c-4.16-.78-1.6,1.06-5.91-1.57a3.45,3.45,0,0,1-1.53-.53,4.67,4.67,0,0,1,1.47-.12c1.28.91,4-.49,4.87.11,3.54,2.32,3.83-.68,3.49-1.07-1.45-1.61-.95-2.68-1.38-3a11.62,11.62,0,0,1-2.68-3.36c-.69-1.27-.3-5.54.2-6.24,1.22-1.73-1.4-3.44-.16-4.53,1-.87.47-2.7,1.31-3,2.39-.83,1.7-1.27,2.26-1.63,1.73-1.1-1,3.44-1.09,4.12-.52,4.26,2-.85,2,5.15a6,6,0,0,1-.31,1.62c-2.37,1.64-.67,2.8-.29,2.06.84-1.65,2.09,1.28,1.44,1.61-1.4.7-1.25,3.18-1,3.53,1.51,1.85,1.05,2.65,3.54,2.65.47,0,3-.41,3.11-.37,2.07,1.23.7,4.88,3.84,4.19.48,1.21-.31,6.05-1.24,6.58-1.13.64-1,3.84-.79,5.12,1.25,8.62,2.7,2.27,2.89,2.11,2.33-2.13,1.13-9.69,1.81-10.51a17.53,17.53,0,0,0,3.12-5.75,16.1,16.1,0,0,0,.6-2.55c.44-3,.16-2.36.16-5.22l-1.83-6c-1.2-.41-.38.17-2.32-.81-.75-.38-3-3.36-3.15-4.34-.29-2.38-.69-3.14-2.57-4.19s-3.46-4.7-1.09-4.7a3.77,3.77,0,0,0,.21,1c.28,1.39,1,1.42,1.5,2a7,7,0,0,0,4.12,2.8c2,.6,2.41,1,4.65.78,1.42-.11,0,1.85,0,2.39,0,.7-.5,2.72.67,1.93,2.61-1.78,1.52-5.6,2.48-6.25s4-6.26,4.19-7.35,1.67-4.79,1.22-5.46c-1-1.45-.59-5-.59-6.84,0-3.15.15-1.51-1-3.72-.56-1.12-1,.06-1.81,0-1.69,0-1.92.35-1.63-.89A7.07,7.07,0,0,0,689,163.1c1.25,0,6.17-.93,6.8-1.47,1-.9,5.58-1.66,5.86-3,.1-.49,2.15-1.41,2.6-1.58,1.26-.49,1.62-1.44,2.32-1.58,1.39-.28,1.89-1.52,2.79-2l2-2c1.8-1.17-2.16-2.43-2.57-2.18-1.8,1.15-1.91,2.86-4.51,3.68s-3.42,2.24-6,2.64c-1.27.19-1.67-.28-2.74-.28s-3.36,4.53-4.88,3.52c-1.11-.75.64-2,1-2.47.88-1.1.39-1.1,0-1.61.23,0,6.17-4.14,6.19-4.16,3.89-5,2.6-1.38,4-2.23.74-.44,5.15-1.88,5.22-2,1.12-1.6,7.14-2,7.28-3.37.07,0,.85-.14.94-.17,1.3-.35.75-.39,1.82-1a6.49,6.49,0,0,0,2-1.93c.7-.89.5-.63,1.63-.84,1.33-.24,1.16-.94,2.27-1.49.13.11,1.65.17,1.85-.71.56-2.41-1-2.61,2.47-3.87,1.8-.66.42,3.32,2.17,2.15.33-.22-.09-.4.79-.76a19.92,19.92,0,0,1,3.26-1.91,5.38,5.38,0,0,1,1.89-.53s2-.6,2-.91c0-.81-.88-5.1-1.65-5.37,0,2.7,0,3.38-2.32,4.78-.69.42-3.8.36-4.1-.53-.73-.1-1.62-3.08-2.66-3.95-1.86-1.55-1.07-2.82-3.92-2.65-.08,0-.57.49-.86.54-1.75-1-1.1-4.3-.27-5.69,1-1.95,1.66-1.78-.76-4.22,0,0-.77-1.21-.78-1.25l.8-4.24c1.76-2.63,1.22-7.25,1.8-9.12,0-1,1.6-1.64.89-2.74-1.13-1.76,2-4.65,2.54-3.58,1,1.84,6.5-2.62,6.49-2.91-.19-4.75,4.15-.51,3.59-5.08-.63-5.13.57-2.45.57-5.31l-1.62-1.15,2-1.15a.78.78,0,0,1,.62.46c1.73,3.83,2.62-.07,2.62,4.5,4.2,0-1.44-4.75,3.1-6.31.48-.17,2.9-2.93,3.15-1,.39,3.22,2.31-.37,3.36-1.11s4.86-5.12,5-5.12C759.43,69.1,758.54,61,755.53,58.89Z"/><path class="cls-3" d="M79.29,450.41c-3.19-.08-1.22,2.15-5.71,3.71-1.49.52-4.32,2.51-4.32,4.17,0,3.54.51,2.46.63,3.08.41,2,4.57-.48,6.64-.9,4.31-.88,2.25-5.79.76-5.73-3.34.13,5.21-.86,2.88-3.19C79.5,450.88,79.75,450.42,79.29,450.41Z"/><path class="cls-3" d="M170.06,469.38l-8.4-3.13c-1.63-2.75-.92-3.56-3.83-5.58-.43-.3-1.8-5.47-3.9-6.85-1.17-.76-.08-.62-2.8-2a9.33,9.33,0,0,0-2.92-3.13c-1.42-.92.19-6.14-5.33-2.79-.66.4.39,2.44-3.07,4.79-3.13,2.12-2.57-.69-2.8-1-.62-.87-.35-1.84-2.4-2.79-.55-.26-2.91-2.46-2.91-3.75,0-5-3.62,1.1-6.25-1.08-.09-.08-1.33-.58-1.51-.65l.3-71.42c-12.92-7.41-5.43-1.28-11.95-2.61-1.91-.39.79-2.37-5-1-.91.22-3.19-4.34-9.32-4.08-5.18.22-.61-7.78-6.86-4-1.53.93-.72-4.64-5.55-4.83,0,0-6.51,5.06-7.2,1.71-2.16-.75-1.22,2.76-6.86,1.61-5.93-1.21-1.4,7.18-11.71,7.18a12.46,12.46,0,0,0-6,1.19c0,.85,4.43,7.33,4.29,10.74-.15,3.82,3.21,2.54,2.84,5.49-.23,1.9,6.33,9.89-4,4.05-2.81-1.58,4.12-5.58-5.75-4.31-.55.07.51,2.68-2.67.8-.09-.05-10.49-1.23-5.58,3,2,1.68,1.85,5.72,2,8.19.15,1.87,10.89,5.83,14.63,3.16,2.15-1.53,1.43,9.72-2,9.72-6,0-2.42-1.75-7.7,1.37-.65.38-2.15-5.78-7.16.54-.11.13-1.56,1.19-1.61,1.19-1,2.18-8.57,5.4-2.6,9.6,1.87,1.32-2.88,4.17-2.88,4.23s1.32,3,1.61,3.82c3.33,9.35,10.19-3.35,8.39,5.47-.32,1.59,2.54,2.49-.48,3.1-.26.05-3,7.77,1.51,5.09a4.37,4.37,0,0,1,3.52-.06c.64,1.65,3.42,1,4.53,5.49.22.9.68-1.91,1-2.82,2.57-.89.35,3.74,6.64.2-.75,2.41-5.35,11.45-7.63,11.45-2.49,0-.85,3-2.86,2.86-.36,1-5.72-.77-7.28,2.3-2,3.85-4.07-1.31-7.18,1-1.55,1.16-2.08-.37-3.12,1.65-.85,1.67-6.91,2.88-8.41,2.08-2-1.1-6.17,1.7-3.11,3,1.67.69.48-1.69,3.38-.59,5.44,2.06,3.36-1,8.15-.78.69,0,4.42-2.13,5.31-.35s3.1-2.25,6-1.81c.88.13-1,2,2.17-.07.67-.43,5.41,1.3,4.94-1.87,0-.12-2.61-1.27,1.42-1.6.07,0,3.65-1.05,4.83-1.29,1.44-.29,12.63-6.63,13.28-7.52s5.81-3.72,3.17-5.28c0,0-2.62-.39-1.37-2.69.84-1.57,4.26-.89,6.77-4.69A27.1,27.1,0,0,1,84,435.09c.82-.6,0-.93,2.24-1.63,0,0,5.89-3.6,6.21-1,.06.49,1.8,2.33-1.63,1.63-.14,0-2.15-2.37-4.26.86-.47.72,0,2.58-2.34,4.7-.17.15-1.32,2.54.68,2.61.09,0,1.6,1.46-1.4,1.83s-.32,4.16,4.65,1.11a19.33,19.33,0,0,0,4.47-3.73c.93-.93,2.08,1.54,4.16.06,1.12-.8,1.84,4.9,3.87.08.61-1.46,2.33-1.47-1-1.71-.1,0-1.51-2.94-.86-3.47,1.3-1.07,6.15-3.29,6,.31-.09,2.68,3.52,2.76,5,4.06a5.72,5.72,0,0,0,4.47,1.57c1.55,2,4.77-.33,8.18,1.81,3.92,2.47,7.34-1.35,7.34.23,0,1.91-1.86,2.44,0,3.41,2.24,1.17,5.55,2.34,7,4.36,1.24,1.7,3.54,3.55,5.68,3.55,2.38,0-2.83,1.62.73,3.48,1.36.71,1.26,6.08,3,6,2.45-.1,4.48,9,4.31,1.72,0-1.13,1-3.08,1.39,1.27.16,1.77,1.4,4.83,2.52,1.31.59-1.85,1.31.57.54,1.64-.63.88.73,2.34.73,2.34.53,2.76-1.93,2.91.86,3.12.45,0,5.38,9.53,2.88,2.49-.76-2.14.64,0,1.87.72,2.18,1.19,2.47,1.78,1.94-2.77-.09-.76-2.25-3.78,1.79-1.22.69.44,3.72,3.57,3.81,3.6,2.64-3.85,2.21-3.8,1.41-9C170.36,470.16,170.26,469.42,170.06,469.38Z"/><path class="cls-3" d="M25.26,390.54c0-.13-.36-.07-.36.15,0,.38-.84.72-.9,1.58-.16,2.36.58,1.54,1.56,1.73a3.22,3.22,0,0,1,2.22,2,16.21,16.21,0,0,0,.93,1.59c.25,1.27,1,1.06,2,1.36,1.38.44,1-.81.54-1.48s-.62-1.45-.86-1.77a9.29,9.29,0,0,1-.65-1.47c0-.09-2-.85-2.17-.94s-1.37-.87-1-.95C26.56,392.19,25.34,390.76,25.26,390.54Z"/><path class="cls-3" d="M12.27,466.7c-1,0-1.54-.19-1.58.86-.06,1.32,0,.61-.61,1.78a.37.37,0,0,1-.16.2c-1.15.87,0,.75.18.93a22.14,22.14,0,0,0,3.06-.52c.67-.15.29-.11.72-.3a1.16,1.16,0,0,0,.28-1.7C13.75,467.64,12.79,466.68,12.27,466.7Z"/><path class="cls-3" d="M28,421.76c-.27,0-.34-.06-.36.08a6,6,0,0,0,.8,2.64c.65.53,1.71,1.94,2,2.14.74.46,1.35.09,2.17.13.66,0,.75-1,1.3-1.7.3-.39.32-1.52-.45-1.76a8,8,0,0,0-1.12-.42,6,6,0,0,0-1.42-.42C30.12,422.38,28.67,421.76,28,421.76Z"/><path class="cls-3" d="M5.34,468c-1.14-.2-2.36.78-2.91.88A4.39,4.39,0,0,0,.06,470.4a.26.26,0,0,0,0,.32,5.46,5.46,0,0,0,1.3-.14A9.48,9.48,0,0,1,3,470.22a9.11,9.11,0,0,1,1.66-.45c1.17-.65.95-.12,1.5,0s.79,0,1-.37.23-.44,0-.93C7,468.44,5.69,468,5.34,468Z"/><path class="cls-3" d="M242.08,436.27c-.93.81-1.39-.07-1.87-.14-.94-.13-1.57-.55-2-.55-.64-.12-.72.21-.72.78,0,.8,2,1.09,2.74,1.46,1.37.68,1.42.28,2.84.55s1.35-.08,2.35-.12,1.28-1,1.59-1.79A22.66,22.66,0,0,0,242.08,436.27Z"/><path class="cls-3" d="M259.14,442.72s-.84-.56-.86-.57a10.84,10.84,0,0,0-1.51-1.07,8.18,8.18,0,0,0-3.63-.87,3.77,3.77,0,0,1-1.53-.58c-1.16-.45-1.67-1.25-2.7-1.6l-1.73,2.12,3,4.43a2.12,2.12,0,0,0,.79.83c.91.59,1.11,1.36,2.24,1.36a21.68,21.68,0,0,0,2.83-.66,10.61,10.61,0,0,0,3.57-1.41C260.68,443.86,259.4,443.07,259.14,442.72Z"/><path class="cls-3" d="M244.1,440.63a9,9,0,0,0-2.45-.37c-.08,0-.06,0-.09,0a2,2,0,0,0,.18,2.1c1.73,3.2,1.57,1,2.71,1a.94.94,0,0,0,1-1.27C245.08,441.66,244.61,440.83,244.1,440.63Z"/><path class="cls-3" d="M189.35,421.11c-2.95-.07-3.59,5.26-.58,2.4C189.34,423,190.92,421.15,189.35,421.11Z"/><path class="cls-3" d="M279,465.27c-.06-.17-1.48-.86-1.87-1.3-1.06-1.19-.74-1.37-1.21-2.05-1.22-1.77-1-3.59-3.13-4.57l-1.59-.88-9-4.29c-.33,0-1,.59-1.14.76-.92,1.18,1.1,3,1.25,3.36l0,.1c.12.36-.27.81-.42,1.09-1.56,2.94-2.72,2.24-3.42,2.88a3.52,3.52,0,0,0,.39,2.47c1.1.9,2.9,4.22,2.46,5.71-.54,1.83.05,2.85,0,4-.08,2.7.79,2.18.89,2.64,1.56.54,1.66,1.61,3.07,1.27l.49-.28.49-.38,2.09-3a17.19,17.19,0,0,1,2.47-2.25c1-.78,1.43-.06,1.88,0,1,.13,1.13-.23,1.14-.23a8.29,8.29,0,0,0,3.14-1.37,14.25,14.25,0,0,0,1.88-1.25C280.06,467.15,280.28,465.39,279,465.27Z"/><path class="cls-3" d="M198.67,416.64l-3.23,1.86-.37,2.48c1.89,1.72,5.88,3.52,7.33.25l.62-2.11-.62-2Z"/><path class="cls-3" d="M228.72,431.5l-3.4-5.71-3.14,1.64a1.19,1.19,0,0,1-.78.52c-.9,0-.93,2-.57,2.26a.18.18,0,0,0,.05.1,15.46,15.46,0,0,1,1.29,1.78c.77,1.45.41.53,1.06,1.37s2.13.39,2.86-.14c.24,0,.74.87,1.2.86,1.46-.05,2.54.72,3.51-.52C231.43,432.85,229.25,432.2,228.72,431.5Z"/></g></g></svg>