<?xml version="1.0" encoding="UTF-8"?>
<svg width="374px" height="363px" viewBox="0 0 374 363" version="1.1" xmlns="http://www.w3.org/2000/svg" xmlns:xlink="http://www.w3.org/1999/xlink">
    <!-- Generator: Sketch 43.2 (39069) - http://www.bohemiancoding.com/sketch -->
    <title>logo_global</title>
    <desc>Created with Sketch.</desc>
    <defs></defs>
    <g id="Page-1" stroke="none" stroke-width="1" fill="none" fill-rule="evenodd">
        <g id="logo_global" fill-rule="nonzero">
            <polygon id="polygon34647" fill="#097EC4" transform="translate(246.361426, 22.009600) scale(-1, 1) rotate(-180.000000) translate(-246.361426, -22.009600) " points="247.413873 34.1043839 249.986522 33.6700409 252.22506 32.6008887 253.494679 31.8324356 254.697476 30.7966945 256.067328 29.3934323 256.835782 27.8899372 257.470591 26.1859759 257.671057 25.1168238 257.804701 23.0787525 257.671057 21.6754904 257.270125 18.701911 257.036248 18.0336909 256.835782 17.3988818 256.301205 16.4633737 255.332285 14.9598785 253.929022 13.0220403 251.790717 11.4183121 249.117835 10.2489269 247.413873 9.9148169 245.3758 9.9148169 243.571605 10.1486939 242.068109 10.583037 240.263914 11.2178461 239.194761 11.7524221 238.326074 12.4874642 237.457388 13.1556843 236.822578 14.0911924 235.753426 15.7951536 235.218849 17.3988818 234.91815 19.8712961 235.018383 22.3437105 235.118616 23.7135616 235.753426 26.386442 238.225841 24.0476717 237.891731 22.4439435 237.891731 19.4369531 238.225841 18.2675679 238.326074 17.3988818 238.860651 16.4633737 239.49546 15.3942216 240.263914 14.7260015 241.4333 13.8907264 242.803152 13.1556843 243.237495 12.9218073 244.841224 12.4874642 245.709911 12.4874642 247.413873 12.7213412 248.282559 12.9218073 249.451945 13.5566164 251.256141 14.9598785 252.325293 16.2294967 253.294213 17.7329919 253.929022 19.4369531 254.463599 20.8402153 254.697476 23.6133286 254.463599 25.4509338 254.1629 26.1859759 253.294213 27.8899372 252.024594 29.3934323 251.055674 30.1284744 250.320632 30.4625845 249.117835 30.9971605 247.64775 31.1976266 245.3758 31.1976266 244.306648 30.9971605 243.137262 30.4625845 242.402219 29.9280084 240.998956 28.8588563 240.030037 27.6894711 239.194761 26.1859759 238.660185 25.2170568 238.225841 24.0476717 235.753426 26.386442 235.753426 26.386442 236.488468 28.1238142 237.357155 29.3934323 238.760418 30.9971605 240.030037 31.9660797 241.333067 32.8013548 242.803152 33.5698079 243.905715 33.8705069 245.709911 34.1043839"></polygon>
            <polygon id="polygon34649" fill="#097EC4" transform="translate(268.362585, 29.493665) scale(-1, 1) rotate(-180.000000) translate(-268.362585, -29.493665) " points="258.639977 18.568267 255.967095 19.8712961 255.967095 19.8712961 266.992733 40.4190637 280.758075 33.0018208 279.488456 30.7632835 268.462818 36.7772643 264.854427 30.1284744 274.677268 24.8829468 273.407649 22.4439435 263.584808 27.7897041"></polygon>
            <polygon id="polygon34651" fill="#097EC4" transform="translate(292.969804, 47.502197) scale(-1, 1) rotate(-180.000000) translate(-292.969804, -47.502197) " points="297.029243 43.0585331 287.406868 50.0080219 281.426295 41.5550379 278.853646 43.3592321 278.853646 43.3592321 292.652399 62.2030385 294.991171 60.3654332 289.344708 52.4470252 298.733205 45.5309474 304.613546 53.4159444 307.085961 51.6117501 293.387442 32.8013548 290.848204 34.605549"></polygon>
            <polygon id="polygon34653" fill="#097EC4" transform="translate(315.472128, 67.665738) scale(-1, 1) rotate(-180.000000) translate(-315.472128, -67.665738) " points="320.350138 78.7748965 322.0541 78.0398544 323.991939 76.3024822 325.261558 74.932631 326.096834 73.7632459 326.531177 72.7943268 327.065754 71.2908316 327.399864 70.3219125 327.60033 68.7181843 327.60033 67.4485661 327.199398 65.8448379 326.865287 64.6754528 325.996601 62.8378475 325.161325 61.6684624 323.657829 59.8642682 322.688909 58.795116 320.884714 57.4920869 318.846642 56.5565787 318.312065 56.2224687 316.608103 55.8883587 314.904141 55.6878926 313.166768 55.7881256 310.928229 56.5565787 308.689691 57.6257309 307.620538 58.461006 306.451152 59.5301581 305.682698 60.3988442 304.847423 61.3343523 304.312846 62.4035045 303.678037 64.0072327 303.44416 64.9761518 303.343927 66.1455369 303.343927 67.7492651 303.544393 68.7181843 303.878503 70.0212134 304.413079 71.0903656 305.916576 73.7632459 306.751851 74.732165 308.255347 76.3024822 309.3245 73.2286698 307.720771 71.0903656 306.885495 68.8518283 306.451152 67.8829092 306.451152 65.3102618 306.885495 64.0072327 307.420072 62.7376145 308.35558 61.3343523 308.689691 61.1338863 309.3245 60.4990772 310.193187 59.6303911 311.796916 58.995582 313.500878 58.795116 314.904141 58.795116 316.808569 59.2294591 318.846642 59.9645012 320.249905 61.1338863 322.287977 62.9714915 323.02302 63.8067667 323.891706 65.3102618 324.092172 66.279181 324.526516 67.8829092 324.526516 69.0522943 324.292639 70.5557895 323.991939 71.6249416 323.223486 73.1284368 322.154333 74.398055 321.853634 74.598521 320.984947 75.3669741 319.381218 76.2022492 317.343146 76.6365923 315.639183 76.6365923 314.469798 76.3024822 313.066535 75.9015502 311.162106 74.732165 309.3245 73.2286698 308.255347 76.3024822 308.255347 76.3024822 309.65861 77.5052784 310.193187 77.9062104 310.493886 78.1400874 312.431725 78.9753626 313.935221 79.4097056 315.53895 79.6435826 317.14268 79.6435826 318.846642 79.3094726"></polygon>
            <polygon id="polygon34655" fill="#097EC4" transform="translate(335.318276, 88.196800) scale(-1, 1) rotate(-180.000000) translate(-335.318276, -88.196800) " points="324.960859 82.650573 325.495435 81.6816539 326.430944 80.3786247 327.199398 79.7438157 328.134906 79.0087736 329.538169 78.5744305 330.072746 78.4741975 331.576242 78.5744305 333.280204 79.3094726 346.978724 88.6311428 348.682686 86.0584954 335.11781 76.6365923 333.514081 75.7679062 332.745628 75.5674401 331.342365 75.3669741 329.738636 75.5674401 328.26855 76.0017832 326.330711 77.2714013 324.526516 78.8751295 323.123253 81.0134338 322.154333 83.1851491 321.953867 84.7554663 321.953867 86.4928385 322.287977 87.9629227 323.123253 89.4664179 324.092172 90.9699131 324.827215 91.6047221 324.827215 91.6047221 338.525735 101.026625 340.430163 98.253512 326.765054 88.9318418 326.096834 88.4974987 325.161325 87.3281136 324.827215 86.6933045 324.526516 85.3234533 324.626749 83.5860811"></polygon>
            <polygon id="polygon34657" fill="#097EC4" transform="translate(345.642283, 111.684736) scale(-1, 1) rotate(-180.000000) translate(-345.642283, -111.684736) " points="337.657048 106.706496 338.859845 105.436878 339.928998 104.568192 341.399083 103.933383 342.167536 103.933383 343.103045 104.033616 343.637621 104.267493 344.305842 104.701836 344.940651 105.537111 345.274762 106.405797 345.475228 108.109758 345.141117 109.279143 343.637621 115.49359 343.537388 116.896852 343.871499 118.80128 344.406075 119.970665 345.141117 121.039817 345.809338 121.47416 347.413067 122.342846 348.916563 122.743778 349.651606 122.743778 351.455801 122.543312 352.424721 122.108969 353.594107 121.373927 354.462793 120.505241 355.966289 118.600814 356.500866 117.732127 357.336141 115.49359 357.670251 114.223972 357.770484 113.021176 357.670251 110.882872 357.235908 109.813719 356.801565 108.978444 356.066522 108.109758 355.197836 107.474949 354.228916 106.806729 352.758831 109.613253 353.193174 109.813719 353.928217 110.448528 354.462793 111.116749 354.663259 111.417448 354.897136 112.286134 355.097603 113.689396 354.563026 115.593823 353.928217 117.097318 353.05953 118.16647 352.324488 118.80128 351.054869 119.536322 350.186182 119.770199 349.317495 119.770199 348.348576 119.335856 347.813999 119.235623 347.279423 118.366936 347.078957 117.531661 347.078957 116.028166 348.582453 109.17891 348.682686 106.706496 348.48222 104.802069 347.813999 103.632684 347.17919 102.563532 346.009804 101.694845 345.141117 101.260502 343.537388 100.85957 342.702113 100.625693 341.198617 100.959803 339.695121 101.494379 338.325269 102.329654 336.922006 103.49904 335.852853 104.802069 334.883933 106.272153 334.249124 108.009525 333.714547 109.713486 333.514081 111.317215 333.514081 112.185901 333.915013 113.889862 334.583234 115.49359 335.11781 116.128399 336.387429 117.431428 337.155883 117.966004 338.091391 118.500581 338.091391 118.500581 339.494654 115.8277 338.859845 115.49359 337.657048 114.223972 336.922006 113.355286 336.487662 111.751558 336.487662 110.682406 336.721539 109.17891 337.022239 108.009525"></polygon>
            <polygon id="polygon34659" fill="#097EC4" transform="translate(353.644223, 129.108574) scale(-1, 1) rotate(-180.000000) translate(-353.644223, -129.108574) " points="342.033892 127.220853 342.033892 127.220853 364.519511 133.769409 365.254554 130.996296 342.802346 124.447739"></polygon>
            <polygon id="polygon34661" fill="#097EC4" transform="translate(358.522233, 149.205293) scale(-1, 1) rotate(-180.000000) translate(-358.522233, -149.205293) " points="345.909571 152.980737 345.274762 155.987727 345.274762 155.987727 368.261546 160.39798 368.996588 156.622536 352.658598 141.754639 371.134894 145.296206 371.769703 142.289215 348.682686 138.012607 348.14811 141.45394 364.185401 156.522303"></polygon>
            <polygon id="polygon34663" fill="#097EC4" transform="translate(361.312053, 175.767042) scale(-1, 1) rotate(-180.000000) translate(-361.312053, -175.767042) " points="373.60731 176.268207 373.60731 174.464013 373.172966 171.991598 372.538157 170.521514 371.769703 169.452362 370.834195 168.0491 370.165974 167.614757 368.896355 166.779482 368.161313 166.545605 366.991927 166.244905 366.75805 169.218485 366.991927 169.218485 368.261546 169.986938 369.330699 171.156323 370.165974 172.526174 370.500085 173.39486 370.834195 175.098822 370.834195 176.167974 370.600318 177.237126 370.165974 178.439922 369.631398 179.910006 368.996588 180.878925 368.06108 181.747611 366.557584 182.816764 363.984935 183.68545 363.016015 183.785683 360.777477 183.785683 357.670251 183.251107 355.097603 182.181954 354.02845 181.313268 353.493873 180.778692 352.758831 179.275197 352.224255 178.005579 351.990377 177.136893 351.990377 174.898356 352.224255 173.595326 352.959297 171.690899 353.193174 171.156323 354.36256 169.753061 354.897136 169.218485 356.367221 168.483443 357.135675 168.0491 359.040103 167.948867 360.2429 168.0491 359.57468 175.432932 362.280973 175.533165 363.216481 165.710329 350.820992 164.540944 350.620525 166.779482 353.293407 167.514524 351.990377 168.817553 350.286415 170.922446 349.651606 172.526174 349.317495 174.263546 349.016796 175.733631 349.217262 177.337359 349.651606 179.70954 350.286415 181.112802 351.355568 182.482654 353.05953 184.220026 354.563026 185.155534 357.235908 186.324919 361.712985 186.993139 361.712985 186.993139 364.285634 186.659029 366.75805 185.923987 368.595656 184.955068 369.765042 184.086382 371.134894 182.482654 372.103814 181.112802 372.63839 180.04365 373.373433 177.571236"></polygon>
            <polygon id="polygon34665" fill="#097EC4" transform="translate(17.178508, 215.409198) scale(-1, 1) rotate(-180.000000) translate(-17.178508, -215.409198) " points="15.1404353 221.339651 16.8778085 214.523807 25.6314968 220.170266 15.1404353 221.339651 4.34867462 225.415794 4.34867462 225.415794 29.0394212 222.94338 30.0083409 219.334991 9.36032819 205.402602 8.52505259 208.843936 14.3051597 212.886667 12.2670873 221.439884 5.21736124 221.97446 4.34867462 225.415794"></polygon>
            <polygon id="polygon34667" fill="#097EC4" transform="translate(21.722407, 236.692008) scale(-1, 1) rotate(-180.000000) translate(-21.722407, -236.692008) " points="8.72551874 238.479497 7.5561329 241.352843 7.5561329 241.352843 29.4737645 249.371484 30.8770275 245.963561 17.1785078 228.322551 34.9197614 234.93793 35.8886811 232.26505 14.0712825 224.012532 12.9018967 227.353632 26.0658401 244.760765"></polygon>
            <polygon id="polygon34669" fill="#097EC4" transform="translate(30.442684, 258.609627) scale(-1, 1) rotate(-180.000000) translate(-30.442684, -258.609627) " points="40.8001016 251.710254 39.0961394 250.206759 37.4924102 249.037374 35.9889142 248.302332 35.5879819 247.968222 35.0534055 247.867989 33.5499094 247.333413 31.61207 246.698604 29.4737645 246.56496 27.8700354 246.698604 26.2663062 246.999303 25.3976196 247.433646 23.9275346 248.402565 22.8583818 249.672183 22.0899283 250.841568 17.512618 258.993853 37.4924102 270.654294 21.5553519 257.824468 24.9966873 251.710254 25.3976196 251.075445 26.2663062 250.306992 27.4356921 249.90606 28.738722 249.672183 30.0083409 249.672183 32.2802905 250.306992 35.1536386 251.710254 37.8265205 253.648092 39.2966055 255.452287 39.964826 256.755316 40.3991693 258.024934 40.4994024 258.659743 40.1652921 259.962772 39.964826 260.697814 39.7309488 261.466267 36.7573677 266.578151 21.5553519 257.824468 37.4924102 270.654294 37.4924102 270.654294 42.2033646 262.735886 42.838174 261.132157 43.1722843 260.397115 43.3727504 258.659743 43.3727504 257.724235 42.9384071 255.452287 42.1031315 253.648092 41.5685551 252.57894"></polygon>
            <polygon id="polygon34671" fill="#097EC4" transform="translate(56.052234, 290.901362) scale(-1, 1) rotate(-180.000000) translate(-56.052234, -290.901362) " points="45.9453993 284.653504 46.8140859 283.250242 47.8832386 282.18109 48.317582 281.746747 49.6874339 281.111938 50.1217772 280.777828 51.19093 280.677595 52.1598497 280.677595 53.2290025 280.911472 54.6990875 281.980624 67.4286876 292.772378 69.46676 290.333375 56.837393 279.407977 55.467541 278.439058 54.6990875 278.138359 53.3292355 277.804248 52.4605489 277.804248 50.9904639 277.904481 49.4869678 278.238592 48.0837048 278.973634 46.1792764 280.477129 44.9764796 281.646514 44.141204 283.049776 43.2725174 284.419627 42.838174 286.157 42.6377079 286.791809 42.6377079 288.395537 42.838174 289.264223 43.3727504 290.867951 43.8070937 291.602993 44.9764796 293.206721 44.9764796 293.206721 57.6058466 303.998476 59.7441521 301.526061 47.1147851 290.634074 46.2795095 289.665155 45.7449331 288.82988 45.511056 287.760728 45.511056 286.791809 45.7449331 285.288313"></polygon>
            <polygon id="polygon34673" fill="#097EC4" transform="translate(73.108562, 311.382308) scale(-1, 1) rotate(-180.000000) translate(-73.108562, -311.382308) " points="85.5040515 310.947965 84.869242 309.778579 83.8000892 308.80966 82.8311695 307.940974 81.8622499 307.540042 80.692864 307.306165 79.4232451 307.306165 78.6882026 307.640275 78.8886687 305.836081 78.6882026 304.232353 78.2538593 303.4639 77.4854057 302.194282 75.046401 299.621634 74.6120577 298.986825 74.2779475 297.81744 74.3781805 296.848521 73.8436041 296.414178 71.1707222 298.886592 71.8389427 300.256443 75.046401 304.098709 75.5809774 305.301505 75.7814435 306.571123 75.3471002 307.940974 74.6120577 309.14377 68.7317175 314.289065 62.1163348 306.805 59.9446182 308.909893 70.6361459 316.427369 76.6501301 310.947965 76.8505963 310.847732 77.4854057 310.413389 78.1536262 310.11269 79.0891349 309.979046 80.2585207 310.212923 80.9267412 310.413389 81.7620168 310.947965 82.6307034 312.250994 82.8311695 312.551693 82.9314026 313.320146 82.9314026 314.589764 82.5304703 315.45845 81.2274404 317.262644 75.7814435 322.174062 70.6361459 316.427369 59.9446182 308.909893 59.9446182 308.909893 75.3471002 326.350438 84.1341995 318.465441 84.9694751 317.596754 85.5040515 316.627835 85.9383948 315.45845 86.272505 314.389298 86.272505 313.320146 85.9383948 312.150761"></polygon>
            <polygon id="polygon34675" fill="#097EC4" transform="translate(95.293481, 325.548573) scale(-1, 1) rotate(-180.000000) translate(-95.293481, -325.548573) " points="105.517255 323.77779 104.448102 323.042748 104.113992 322.909104 102.944606 322.508172 101.975686 322.274295 101.340877 322.374528 102.510263 320.804211 102.74414 319.935525 102.844373 318.131331 102.510263 317.162411 101.975686 316.093259 101.340877 315.024107 100.906533 314.389298 100.037847 313.620845 99.0021051 312.986036 98.3338846 312.651926 97.5988421 312.551693 97.498609 312.45146 95.4605365 312.351227 95.2600704 312.45146 94.4916169 312.45146 93.322231 312.78557 92.8878877 313.086269 83.3657459 318.866373 87.5421239 319.935525 94.4916169 315.658916 95.2600704 315.558683 95.8948799 315.45845 97.1644988 315.558683 98.3338846 316.193492 98.7682279 316.728068 99.3028043 317.46311 99.6369145 318.665907 99.6369145 319.300716 99.5032704 319.935525 99.3028043 320.570334 99.0021051 321.338787 98.1334185 322.274295 91.5180357 326.350438 87.5421239 319.935525 83.3657459 318.866373 93.1217649 328.923085 98.6679948 325.615395 99.0021051 325.181052 99.6369145 324.947175 100.371957 324.846942 101.107 324.846942 101.674987 324.947175 102.209563 325.281285 103.278716 326.250205 103.813293 327.219124 104.013759 327.954166 104.013759 328.588975 103.813293 329.357428 103.679648 330.09247 103.145072 330.961156 102.510263 331.696198 101.541343 332.364418 96.8303885 335.137532 93.1217649 328.923085 83.3657459 318.866373 83.3657459 318.866373 95.5607696 338.74592 104.548335 333.400159 105.817954 332.030308 106.786874 330.42658 107.221217 328.588975 107.120984 326.784781 106.786874 325.815861 105.717721 324.212133"></polygon>
            <polygon id="polygon34677" fill="#097EC4" transform="translate(218.596865, 13.389561) scale(-1, 1) rotate(-180.000000) translate(-218.596865, -13.389561) " points="213.835794 1.46183284 216.943019 22.1098334 209.358717 23.3794516 209.759649 25.8518659 227.835013 22.9451085 227.434081 20.3724612 220.25071 21.4416133 216.943019 0.927256772"></polygon>
            <polygon id="polygon34679" fill="#097EC4" transform="translate(193.538597, 12.220176) scale(-1, 1) rotate(-180.000000) translate(-193.538597, -12.220176) " points="187.307441 0.726790747 184.233627 0.726790747 184.233627 0.726790747 184.534326 24.0476717 188.276361 24.0476717 199.502465 4.90316627 199.836575 23.7135616 202.843567 23.7135616 202.509457 0.392680705 198.967888 0.392680705 187.541318 19.102843"></polygon>
            <polygon id="polygon34681" fill="#097EC4" transform="translate(166.893305, 12.921807) scale(-1, 1) rotate(-180.000000) translate(-166.893305, -12.921807) " points="162.817161 3.29943807 176.415447 5.00339928 176.716146 2.43075196 160.244512 0.292447692 160.244512 0.292447692 157.070464 23.4128626 173.207989 25.5511669 173.508688 22.9785195 160.478389 21.2745583 161.447309 13.7904934 173.943031 15.4944546 174.377375 12.8215743 161.981885 11.2178461"></polygon>
            <polygon id="polygon34683" fill="#097EC4" transform="translate(139.479560, 18.317684) scale(-1, 1) rotate(-180.000000) translate(-139.479560, -18.317684) " points="144.20722 7.57604661 141.333872 6.7073605 130.007535 22.4439435 135.353299 4.90316627 132.145841 4.03448016 132.145841 4.03448016 125.530458 26.386442 130.007535 27.5558271 141.768216 10.649859 142.403025 31.2978596 146.779869 32.6008887 153.428663 10.34916 150.321438 9.28000782 144.975674 27.1214841"></polygon>
            <polygon id="polygon34685" fill="#097EC4" transform="translate(112.132637, 24.732597) scale(-1, 1) rotate(-180.000000) translate(-112.132637, -24.732597) " points="119.316008 11.9528882 110.428675 30.7632835 103.278716 27.4555941 102.075919 29.7943644 118.781431 37.5123064 119.950817 35.2737691 113.302023 32.1665457 122.189356 13.3561503"></polygon>
            <polygon id="polygon34687" fill="#097EC4" transform="translate(95.995113, 37.729478) scale(-1, 1) rotate(-180.000000) translate(-95.995113, -37.729478) " points="101.107 47.0344426 101.240644 46.3996335 101.340877 45.0966043 101.340877 44.3615622 101.240644 43.0919441 100.572423 41.8891479 101.975686 41.7889149 103.579415 41.2543388 104.982678 39.9847207 106.152064 38.1471154 107.555327 35.9085782 108.62448 35.1735361 109.058823 34.939659 109.693633 34.939659 110.228209 34.30485 107.020751 32.1665457 106.686641 32.5006557 106.152064 33.0352318 102.844373 37.5123064 101.875453 38.3809925 101.107 38.8153355 100.371957 38.9155685 99.6369145 38.9155685 97.8995413 38.3809925 91.2841586 34.30485 96.8303885 25.7516329 94.2911507 24.2481377 90.0145397 36.6436202 96.7301555 40.9536398 97.0642657 41.0538728 97.498609 41.5884489 98.0331854 42.1230249 98.4341177 43.3926431 98.4341177 44.9963713 98.2336515 45.6645914 97.5988421 46.6000995 97.1644988 47.0344426 96.6299224 47.5690186 95.8948799 47.9031287 95.0261932 48.0033617 94.1909176 47.9031287 93.1217649 47.6692516 91.918968 47.1346756 85.8381617 43.1921771 90.0145397 36.6436202 94.2911507 24.2481377 94.2911507 24.2481377 81.7620168 43.9272192 91.7185019 50.1416659 93.0215318 50.876708 94.5918499 51.2108181 95.7946468 51.2108181 97.1644988 50.776475 99.3028043 49.4734459 100.271724 48.5379377"></polygon>
            <polygon id="polygon34689" fill="#097EC4" transform="translate(75.831560, 56.172352) scale(-1, 1) rotate(-180.000000) translate(-75.831560, -56.172352) " points="70.9702561 54.9194395 76.5498971 59.4299251 67.7627978 64.8759188 70.9702561 54.9194395 71.8389427 43.2924101 71.8389427 43.2924101 63.6866529 66.713524 66.593412 69.0522943 87.9764672 56.4229347 85.3035853 54.1843974 78.8886687 57.8261969 72.0394089 52.3802032 74.6120577 45.6311804 71.8389427 43.2924101"></polygon>
            <polygon id="polygon34691" fill="#097EC4" transform="translate(51.825739, 69.653692) scale(-1, 1) rotate(-180.000000) translate(-51.825739, -69.653692) " points="57.5056135 80.8129678 58.240656 80.1781587 59.3098088 78.7080745 60.0782623 77.0041133 60.3789615 76.0351942 60.4791946 75.0662751 60.2787285 73.9971229 59.9446182 72.8277378 59.2095757 71.9590517 54.064278 65.6443719 61.7822245 59.3296921 59.9446182 56.9909218 46.1792764 72.2931617 52.0262056 67.2481001 57.0712702 73.3623139 57.0712702 73.4625469 57.1715033 74.732165 57.1715033 75.7010841 56.9710371 76.4695372 56.3028166 77.6389224 55.5677741 78.4741975 55.0331977 78.5744305 54.1645111 79.0087736 53.2290025 79.2426506 51.9259725 78.9085405 51.3913961 78.5744305 51.19093 78.3739645 50.7565867 77.9396214 46.1792764 72.2931617 59.9446182 56.9909218 59.9446182 56.9909218 41.8692544 71.9590517 48.7519253 80.1781587 49.9213111 81.3475439 50.7565867 81.8821199 52.4605489 82.316463 53.3292355 82.316463 54.4986214 82.21623 56.2025836 81.6816539"></polygon>
            <polygon id="polygon34693" fill="#097EC4" transform="translate(40.816807, 87.344819) scale(-1, 1) rotate(-180.000000) translate(-40.816807, -87.344819) " points="46.1792764 78.5744305 52.560782 90.335104 55.0331977 89.2659518 47.014552 74.732165 47.014552 74.732165 26.6004165 85.7243854 34.284952 99.9574732 36.6571346 98.687855 30.3424511 87.2278806 36.8576008 83.6194921 42.838174 94.6117125 45.3105898 93.2084503 39.1963725 82.316463"></polygon>
            <polygon id="polygon34695" fill="#097EC4" transform="translate(26.800883, 110.498645) scale(-1, 1) rotate(-180.000000) translate(-26.800883, -110.498645) " points="27.2352259 121.875092 29.0394212 121.440749 30.9772606 120.906173 34.7192953 119.001746 37.1583 116.863441 38.2274528 115.694056 39.0961394 114.391027 39.4302496 113.455519 39.7309488 111.851791 39.7309488 110.248062 39.1963725 107.775648 35.8886811 99.1221981 13.8708164 107.441538 34.0844858 103.064697 36.6571346 109.479609 36.8576008 110.648995 36.8576008 111.317215 36.4232575 112.4866 35.8886811 113.555752 34.385185 115.15948 33.1155661 116.128399 31.7457141 116.863441 28.738722 117.932593 27.0347598 118.233292 25.5312637 118.233292 23.9275346 118.133059 22.6245046 117.83236 21.5553519 117.16414 20.4861991 116.228632 19.7511566 114.925603 17.6128511 109.17891 34.0844858 103.064697 13.8708164 107.441538 13.8708164 107.441538 17.2787408 116.128399 17.9469613 117.16414 18.7822369 118.567403 20.0518558 119.837021 21.2546527 120.605474 22.4240385 121.14005 23.9275346 121.574393 25.5312637 121.875092"></polygon>
            <polygon id="polygon34697" fill="#097EC4" transform="translate(16.927925, 145.363028) scale(-1, 1) rotate(-180.000000) translate(-16.927925, -145.363028) " points="26.2663062 143.391779 26.2663062 144.561164 26.3665393 145.530083 26.2663062 147.133811 25.932196 147.969086 25.3976196 148.837772 24.7628102 149.472581 23.9275346 149.906924 22.6245046 150.140801 22.1901613 150.140801 21.2546527 149.706458 19.9516227 148.837772 18.915881 147.334277 18.3813046 145.964426 16.2095881 141.554173 15.3743125 140.518432 14.3051597 139.649746 13.33624 138.914704 12.1668542 138.480361 10.563125 138.480361 8.82575181 138.914704 8.42481952 139.11517 6.82109038 140.084089 5.85217069 141.153241 4.98348407 142.623326 4.78301793 143.692478 4.68278486 145.530083 4.78301793 146.799701 4.98348407 148.403429 5.08371714 148.837772 6.05263683 151.310187 7.45589983 153.348258 8.72551874 154.517643 10.0285487 155.052219 11.3984006 155.352918 13.0021298 155.152452 13.7705833 154.918575 13.1357739 152.045229 12.5677865 152.145462 11.7325109 152.279106 10.8638243 152.045229 10.0285487 151.610886 9.36032819 151.07631 8.72551874 150.341267 8.09070928 149.606225 7.65636598 148.637306 7.45589983 147.133811 7.22202267 145.195973 7.45589983 144.126821 7.99047621 143.391779 8.42481952 142.623326 9.26009512 142.088749 10.1287817 141.687817 10.563125 141.554173 10.9640573 141.687817 11.832744 142.088749 12.2670873 142.222393 13.236007 143.391779 14.5056259 145.42985 16.8778085 150.140801 17.6128511 151.209954 18.915881 152.479572 19.5506905 152.813682 21.2546527 153.448491 21.8894621 153.74919 23.3929582 153.74919 24.9966873 153.248025 25.8319629 152.713449 27.0347598 151.610886 27.9702685 150.341267 28.738722 148.938005 29.0394212 147.334277 29.1730653 145.530083 29.0394212 143.826122 28.3043787 141.253474 27.1349929 138.914704 26.7006495 138.246484 25.3976196 137.077099 23.9275346 136.10818 23.058848 135.807481 21.5553519 135.373138 20.4861991 135.373138 18.6820038 135.807481 18.6820038 135.807481 19.3168133 138.680827 19.9516227 138.480361 21.0207755 138.480361 22.1901613 138.680827 23.058848 139.11517 24.462111 140.084089 25.0969204 140.919364 25.6314968 141.78805"></polygon>
            <polygon id="polygon34699" fill="#097EC4" transform="translate(28.404612, 135.723953) scale(-1, 1) rotate(-180.000000) translate(-28.404612, -135.723953) " points="29.5739976 133.535532 29.5739976 133.535532 26.2663062 134.471041 27.0347598 137.912374 30.5429173 137.043688"></polygon>
            <polygon id="polygon34701" fill="#097EC4" transform="translate(22.841676, 163.338148) scale(-1, 1) rotate(-180.000000) translate(-22.841676, -163.338148) " points="24.562344 161.467132 24.562344 161.467132 20.9205424 161.801242 21.2546527 165.209164 24.7628102 164.908465"></polygon>
            <polygon id="polygon34703" fill="#097EC4" transform="translate(13.119068, 174.012964) scale(-1, 1) rotate(-180.000000) translate(-13.119068, -174.012964) " points="22.8583818 172.025009 22.9586149 173.72897 22.9586149 174.69789 22.5242716 175.767042 22.1901613 176.836194 21.655585 177.604647 20.8203094 178.239456 19.9516227 178.774032 18.2476605 179.308608 1.67579271 180.277527 1.77602578 183.585217 18.3813046 182.516065 19.3168133 182.415832 20.8203094 181.981488 21.5553519 181.547145 22.6245046 180.71187 23.058848 180.177294 24.1280007 178.774032 24.462111 178.139223 24.9966873 176.635728 25.2973865 175.767042 25.3976196 174.163313 25.2973865 171.824543 24.562344 169.452362 24.3284669 168.71732 22.9586149 166.779482 21.655585 165.710329 20.8203094 165.175753 19.2165802 164.540944 17.2787408 164.440711 17.2787408 164.440711 0.840517118 165.40963 0.94075019 168.71732 18.6820038 167.648168 19.7511566 168.082511 20.7200763 168.617087 21.3548857 169.352129 21.9896952 170.087171 22.4240385 171.05609"></polygon>
            <polygon id="polygon34705" fill="#097EC4" transform="translate(113.368845, 338.478632) scale(-1, 1) rotate(-180.000000) translate(-113.368845, -338.478632) " points="113.001324 339.614606 119.416241 336.808082 120.284927 347.06526 113.001324 339.614606 103.145072 333.400159 103.145072 333.400159 120.05105 351.675979 123.592619 350.172484 122.089123 325.281285 118.981897 326.784781 119.316008 333.934736 111.297362 337.242425 106.486174 332.09713 103.145072 333.400159"></polygon>
            <polygon id="polygon34707" fill="#097EC4" transform="translate(138.143119, 343.991448) scale(-1, 1) rotate(-180.000000) translate(-138.143119, -343.991448) " points="129.038615 334.369079 126.165267 335.237765 126.165267 335.237765 132.44654 357.689959 136.088342 356.72104 142.102326 335.438231 147.113979 353.613817 150.120972 352.778542 143.772877 330.292936 140.498597 331.161622 134.050269 352.344199"></polygon>
            <polygon id="polygon34709" fill="#097EC4" transform="translate(175.930987, 350.356244) scale(-1, 1) rotate(-180.000000) translate(-175.930987, -350.356244) " points="185.30278 353.079241 185.403013 350.540005 185.169135 347.967357 184.534326 345.261066 183.99975 343.891215 183.264707 342.38772 182.730131 341.519033 181.560745 340.449881 180.692058 339.815072 179.389028 339.180263 177.050257 338.545454 175.747227 338.545454 166.458962 338.846153 167.327649 362.167034 169.465954 341.853144 177.250723 341.4188 178.319876 341.853144 179.389028 342.588186 180.157482 343.456872 180.792291 344.72649 181.427101 346.129752 181.761211 347.633247 181.961677 350.205895 181.961677 351.70939 181.660978 353.413351 181.326868 354.783202 180.692058 356.286697 179.923605 357.355849 178.854452 358.324769 177.685066 358.959578 176.281803 359.160044 170.200997 359.393921 169.465954 341.853144 167.327649 362.167034 167.327649 362.167034 176.615913 361.966568 177.785299 361.732691 179.389028 361.331759 181.326868 360.128963 182.730131 358.959578 183.69905 357.689959 184.534326 355.852354 185.068902 354.38227"></polygon>
            <polygon id="polygon34711" fill="#097EC4" transform="translate(201.423599, 350.256011) scale(-1, 1) rotate(-180.000000) translate(-201.423599, -350.256011) " points="196.929816 340.884224 210.427869 341.986788 210.728569 339.280496 194.056468 338.010878 194.056468 338.010878 192.118628 361.231526 208.289564 362.501144 208.49003 360.062141 195.326087 359.093222 196.09454 351.508924 208.590263 352.444432 208.82414 349.671318 196.194773 348.702399"></polygon>
            <polygon id="polygon34713" fill="#097EC4" transform="translate(250.237104, 339.514373) scale(-1, 1) rotate(-180.000000) translate(-250.237104, -339.514373) " points="248.716903 329.390839 261.212626 334.602956 262.382012 331.930075 246.97953 325.615395 246.97953 325.615395 238.092197 347.232315 252.85987 353.413351 253.828789 350.974348 241.867643 346.06293 244.740991 339.113441 256.301205 343.924626 257.370358 341.351978 245.709911 336.641027"></polygon>
            <polygon id="polygon34715" fill="#097EC4" transform="translate(341.900248, 261.499678) scale(-1, 1) rotate(-180.000000) translate(-341.900248, -261.499678) " points="347.413067 253.113516 353.594107 264.974423 356.066522 263.905271 348.582453 249.037374 348.582453 249.037374 327.733974 259.728895 335.11781 273.961983 337.256116 272.792598 331.342365 261.23239 337.991158 257.724235 343.637621 268.950332 346.343914 267.747536 340.563807 256.521439"></polygon>
            <polygon id="polygon34717" fill="#097EC4" transform="translate(272.706018, 332.030308) scale(-1, 1) rotate(-180.000000) translate(-272.706018, -332.030308) " points="263.885508 343.156173 273.073539 324.78012 283.130257 329.791771 284.399876 327.252535 271.369577 320.904444 271.369577 320.904444 261.01216 341.686088"></polygon>
            <polygon id="polygon34719" fill="#097EC4" transform="translate(288.626371, 319.116955) scale(-1, 1) rotate(-180.000000) translate(-288.626371, -319.116955) " points="278.65318 325.882684 279.688922 327.285946 280.657842 328.154632 282.161338 329.42425 283.8653 330.159292 284.299643 330.493402 284.83422 330.593635 285.16833 330.827512 287.740979 331.362088 289.879284 331.027978 290.948437 330.927745 292.01759 330.593635 293.621319 329.75836 295.091404 328.555564 296.160557 327.720289 298.198629 325.247874 299.702125 322.040418 300.136468 320.871033 300.336935 318.632496 300.336935 317.663576 300.136468 315.859382 299.902591 314.79023 298.967083 312.752159 298.198629 311.683007 297.363353 310.714088 296.394434 309.745168 294.690472 308.47555 294.256128 308.14144 292.451933 307.372987 290.848204 306.972055 289.779051 306.871822 287.640746 306.972055 285.368796 307.606864 283.8653 308.341906 282.061105 309.745168 281.092185 310.714088 279.388223 312.752159 278.519536 313.921544 281.960871 314.355887 282.061105 314.021777 283.464368 312.618515 285.16833 311.148431 286.237483 310.613855 287.306635 310.179512 289.444941 309.745168 290.71456 309.845401 292.218056 310.179512 293.186975 310.714088 294.556827 311.683007 295.525747 312.418049 295.96009 313.153091 296.5949 314.255654 297.229709 316.494191 297.229709 317.329466 297.129476 318.933195 296.92901 319.902114 295.759624 322.77546 294.690472 324.613065 293.922018 325.581984 292.752632 326.41726 291.917357 327.185713 290.179983 328.020988 289.010597 328.254865 287.406868 328.254865 285.602673 328.020988 285.16833 327.920755 283.664834 327.052069 282.161338 325.882684 281.092185 324.379188 280.557608 323.310036 280.123265 322.140651 280.123265 321.405609 279.922799 319.902114 280.123265 318.532263 280.357142 317.563343 280.991952 315.859382 281.960871 314.355887 278.519536 313.921544 278.519536 313.921544 278.118604 314.79023 277.68426 315.725738 277.249917 317.129 277.049451 318.09792 276.915807 320.7708 277.049451 322.274295 277.450383 323.310036 278.118604 324.813531"></polygon>
            <polygon id="polygon34721" fill="#097EC4" transform="translate(221.704090, 346.129752) scale(-1, 1) rotate(-180.000000) translate(-221.704090, -346.129752) " points="212.031599 354.582736 215.138824 355.317778 225.830351 337.476302 228.169123 357.990659 231.376581 358.759112 228.269356 334.268846 225.061898 333.500392 225.061898 333.500392"></polygon>
            <polygon id="polygon34723" fill="#097EC4" transform="translate(305.265061, 303.831421) scale(-1, 1) rotate(-180.000000) translate(-305.265061, -303.831421) " points="311.028462 315.959615 312.632191 314.689997 313.500878 313.386968 314.23592 312.017117 314.670264 310.714088 314.770497 309.644935 314.670264 308.80966 314.469798 307.840741 313.935221 306.637945 312.866068 305.46856 306.885495 300.256443 313.400645 292.638734 311.162106 290.734307 300.136468 307.940974 305.181533 302.060638 311.028462 307.172521 311.028462 307.406398 311.462805 308.575783 311.462805 310.413389 311.028462 311.582774 310.29342 312.651926 309.023801 313.386968 308.155114 313.620845 307.286428 313.620845 305.916576 313.186502 305.381999 312.752159 300.136468 307.940974 311.162106 290.734307 311.162106 290.734307 295.759624 308.375317 303.878503 315.425039 303.978736 315.525272 305.181533 316.293725 305.682698 316.494191 306.751851 316.928534 308.255347 316.928534 309.959309 316.393958"></polygon>
            <polygon id="polygon34725" fill="#097EC4" transform="translate(325.361791, 284.269278) scale(-1, 1) rotate(-180.000000) translate(-325.361791, -284.269278) " points="335.218043 278.004714 333.280204 275.565711 315.20484 282.481789 329.337703 270.85476 327.199398 268.382345 327.199398 268.382345 309.3245 283.350475 312.197848 286.791809 331.342365 279.207511 320.550604 296.848521 323.457363 300.15621 341.399083 285.18808 339.260777 282.815899 324.960859 294.710217"></polygon>
            <polygon id="polygon34727" fill="#097EC4" transform="translate(352.474837, 238.078564) scale(-1, 1) rotate(-180.000000) translate(-352.474837, -238.078564) " points="361.712985 228.62325 360.777477 225.716493 360.777477 225.716493 338.525735 233.000092 339.695121 236.408014 361.078176 241.653542 343.236689 247.533879 344.172198 250.440636 366.42394 243.157037 365.254554 239.849348 343.971732 234.403354"></polygon>
            <polygon id="polygon34729" fill="#097EC4" transform="translate(358.204828, 213.103839) scale(-1, 1) rotate(-180.000000) translate(-358.204828, -213.103839) " points="370.165974 207.206797 349.651606 211.516816 348.047877 203.899107 345.575461 204.433683 349.317495 222.308571 351.789911 221.874227 350.286415 214.724273 370.834195 210.547897"></polygon>
            <polygon id="polygon34731" fill="#1EA271" transform="translate(127.501708, 241.720364) scale(-1, 1) rotate(-180.000000) translate(-127.501708, -241.720364) " points="121.35408 191.737502 121.35408 191.737502 133.649337 191.737502 133.649337 291.703226 121.35408 291.703226"></polygon>
            <polygon id="polygon34733" fill="#1EA271" transform="translate(145.192845, 237.861393) scale(-1, 1) rotate(-180.000000) translate(-145.192845, -237.861393) " points="139.095334 177.70488 139.095334 177.70488 151.290357 177.70488 151.290357 298.017906 139.095334 298.017906"></polygon>
            <polygon id="polygon34735" fill="#1EA271" transform="translate(162.683516, 230.962021) scale(-1, 1) rotate(-180.000000) translate(-162.683516, -230.962021) " points="156.535888 163.171093 156.535888 163.171093 168.831145 163.171093 168.831145 298.752948 156.535888 298.752948"></polygon>
            <polygon id="polygon34737" fill="#1EA271" transform="translate(180.742175, 247.433646) scale(-1, 1) rotate(-180.000000) translate(-180.742175, -247.433646) " points="174.577841 197.049851 174.577841 197.049851 186.906509 197.049851 186.906509 297.81744 174.577841 297.81744"></polygon>
            <polygon id="polygon34739" fill="#1EA271" transform="translate(197.948852, 247.433646) scale(-1, 1) rotate(-180.000000) translate(-197.948852, -247.433646) " points="191.918162 197.049851 191.918162 197.049851 203.979542 197.049851 203.979542 297.81744 191.918162 297.81744"></polygon>
            <polygon id="polygon34741" fill="#1EA271" transform="translate(215.706811, 230.009807) scale(-1, 1) rotate(-180.000000) translate(-215.706811, -230.009807) " points="209.559183 162.001708 209.559183 162.001708 221.85444 162.001708 221.85444 298.017906 209.559183 298.017906"></polygon>
            <polygon id="polygon34743" fill="#1EA271" transform="translate(233.782175, 237.861393) scale(-1, 1) rotate(-180.000000) translate(-233.782175, -237.861393) " points="227.634547 177.70488 227.634547 177.70488 239.929804 177.70488 239.929804 298.017906 227.634547 298.017906"></polygon>
            <polygon id="polygon34745" fill="#1EA271" transform="translate(251.322963, 241.603425) scale(-1, 1) rotate(-180.000000) translate(-251.322963, -241.603425) " points="245.175334 191.603858 245.175334 191.603858 257.470591 191.603858 257.470591 291.602993 245.175334 291.602993"></polygon>
            <polygon id="polygon34747" fill="#097EC4" transform="translate(126.733255, 133.168011) scale(-1, 1) rotate(-180.000000) translate(-126.733255, -133.168011) " points="120.68586 178.03899 120.68586 178.03899 120.68586 79.1090066 132.78065 79.1090066 132.78065 187.227016"></polygon>
            <polygon id="polygon34749" fill="#097EC4" transform="translate(144.708386, 119.369267) scale(-1, 1) rotate(-180.000000) translate(-144.708386, -119.369267) " points="138.66099 163.037449 138.66099 163.037449 138.66099 66.479647 150.755781 66.479647 150.755781 172.258886"></polygon>
            <polygon id="polygon34751" fill="#097EC4" transform="translate(162.683516, 105.420172) scale(-1, 1) rotate(-180.000000) translate(-162.683516, -105.420172) " points="156.535888 147.868853 156.535888 147.868853 156.535888 53.7834654 168.831145 53.7834654 168.831145 157.056879"></polygon>
            <polygon id="polygon34753" fill="#097EC4" transform="translate(215.756928, 106.121803) scale(-1, 1) rotate(-180.000000) translate(-215.756928, -106.121803) " points="221.954673 148.10273 221.954673 148.10273 221.954673 54.9528505 209.559183 54.9528505 209.559183 157.290756"></polygon>
            <polygon id="polygon34755" fill="#097EC4" transform="translate(233.397948, 119.486205) scale(-1, 1) rotate(-180.000000) translate(-233.397948, -119.486205) " points="239.49546 163.171093 239.49546 163.171093 239.49546 66.613291 227.300437 66.613291 227.300437 172.359119"></polygon>
            <polygon id="polygon34757" fill="#097EC4" transform="translate(251.373079, 133.869642) scale(-1, 1) rotate(-180.000000) translate(-251.373079, -133.869642) " points="257.470591 178.673799 257.470591 178.673799 257.470591 79.9776927 245.275567 79.9776927 245.275567 187.761592"></polygon>
            <polygon id="polygon34759" fill="#097EC4" transform="translate(188.760821, 145.145856) scale(-1, 1) rotate(-180.000000) translate(-188.760821, -145.145856) " points="193.187781 188.596867 192.118628 189.36532 190.84901 189.899896 190.080556 190.33424 188.810937 190.534706 187.441085 190.634939 186.037822 190.534706 184.968669 190.434473 183.565406 189.899896 182.396021 189.265087 181.126402 188.296168 179.622906 186.892906 178.988096 185.823754 178.319876 184.654369 177.918943 183.384751 177.584833 182.215365 177.4846 180.611637 177.4846 180.611637 184.434093 180.611637 174.811718 169.886705 174.811718 99.6567741 202.709923 99.6567741 202.709923 173.628737 195.459731 185.289178 194.925154 186.258097 194.156701 187.427482"></polygon>
            <polygon id="polygon34761" fill="#1EA271" transform="translate(79.573595, 180.010239) scale(-1, 1) rotate(-180.000000) translate(-79.573595, -180.010239) " points="79.4232451 171.089501 68.096908 162.436051 68.096908 162.436051 72.5739852 176.435262 61.2476482 185.088712 75.3471002 185.088712 79.4232451 197.584427 83.6998562 185.088712 97.8995413 185.088712 86.6734373 176.435262 90.8498153 162.73675"></polygon>
            <polygon id="polygon34763" fill="#097EC4" transform="translate(297.463587, 180.962453) scale(-1, 1) rotate(-180.000000) translate(-297.463587, -180.962453) " points="297.229709 172.025009 285.903372 163.371559 285.903372 163.371559 290.514094 177.37077 279.087523 185.923987 293.186975 185.923987 297.229709 198.553347 301.406087 185.923987 315.83965 185.923987 304.513313 177.37077 308.689691 163.805902"></polygon>
        </g>
    </g>
</svg>