<?xml version="1.0" encoding="utf-8"?>
<!-- Generator: Adobe Illustrator 21.0.1, SVG Export Plug-In . SVG Version: 6.00 Build 0)  -->
<svg version="1.1" id="Layer_1" xmlns="http://www.w3.org/2000/svg" xmlns:xlink="http://www.w3.org/1999/xlink" x="0px" y="0px"
	 viewBox="0 0 374 363" style="enable-background:new 0 0 374 363;" xml:space="preserve">
<style type="text/css">
	.st0{fill:#FFFFFF;}
	.st1{fill:#1EA271;}
	.st2{fill:#097EC4;}
</style>
<title>logo_global</title>
<desc>Created with Sketch.</desc>
<g id="Page-1">
	<g id="logo_global">
		<polygon id="polygon34647" class="st0" points="247.4,9.9 250,10.3 252.2,11.4 253.5,12.2 254.7,13.2 256.1,14.6 256.8,16.1 
			257.5,17.8 257.7,18.9 257.8,20.9 257.7,22.3 257.3,25.3 257,26 256.8,26.6 256.3,27.6 255.3,29.1 253.9,31 251.8,32.6 
			249.1,33.8 247.4,34.1 245.4,34.1 243.6,33.9 242.1,33.4 240.3,32.8 239.2,32.3 238.3,31.5 237.5,30.9 236.8,29.9 235.8,28.2 
			235.2,26.6 234.9,24.1 235,21.7 235.1,20.3 235.8,17.6 238.2,20 237.9,21.6 237.9,24.6 238.2,25.8 238.3,26.6 238.9,27.6 
			239.5,28.6 240.3,29.3 241.4,30.1 242.8,30.9 243.2,31.1 244.8,31.5 245.7,31.5 247.4,31.3 248.3,31.1 249.5,30.5 251.3,29.1 
			252.3,27.8 253.3,26.3 253.9,24.6 254.5,23.2 254.7,20.4 254.5,18.6 254.2,17.8 253.3,16.1 252,14.6 251.1,13.9 250.3,13.6 
			249.1,13 247.6,12.8 245.4,12.8 244.3,13 243.1,13.6 242.4,14.1 241,15.2 240,16.3 239.2,17.8 238.7,18.8 238.2,20 235.8,17.6 
			235.8,17.6 236.5,15.9 237.4,14.6 238.8,13 240,12.1 241.3,11.2 242.8,10.4 243.9,10.1 245.7,9.9 		"/>
		<polygon id="polygon34649" class="st0" points="258.6,40.4 256,39.1 256,39.1 267,18.6 280.8,26 279.5,28.2 268.5,22.2 
			264.9,28.9 274.7,34.1 273.4,36.5 263.6,31.2 		"/>
		<polygon id="polygon34651" class="st0" points="297,51.9 287.4,45 281.4,53.4 278.9,51.6 278.9,51.6 292.7,32.8 295,34.6 
			289.3,42.6 298.7,49.5 304.6,41.6 307.1,43.4 293.4,62.2 290.8,60.4 		"/>
		<polygon id="polygon34653" class="st0" points="320.4,56.6 322.1,57.3 324,59 325.3,60.4 326.1,61.6 326.5,62.5 327.1,64 
			327.4,65 327.6,66.6 327.6,67.9 327.2,69.5 326.9,70.7 326,72.5 325.2,73.7 323.7,75.5 322.7,76.5 320.9,77.8 318.8,78.8 
			318.3,79.1 316.6,79.4 314.9,79.6 313.2,79.5 310.9,78.8 308.7,77.7 307.6,76.9 306.5,75.8 305.7,74.9 304.8,74 304.3,72.9 
			303.7,71.3 303.4,70.4 303.3,69.2 303.3,67.6 303.5,66.6 303.9,65.3 304.4,64.2 305.9,61.6 306.8,60.6 308.3,59 309.3,62.1 
			307.7,64.2 306.9,66.5 306.5,67.4 306.5,70 306.9,71.3 307.4,72.6 308.4,74 308.7,74.2 309.3,74.8 310.2,75.7 311.8,76.3 
			313.5,76.5 314.9,76.5 316.8,76.1 318.8,75.4 320.2,74.2 322.3,72.4 323,71.5 323.9,70 324.1,69.1 324.5,67.4 324.5,66.3 
			324.3,64.8 324,63.7 323.2,62.2 322.2,60.9 321.9,60.7 321,60 319.4,59.1 317.3,58.7 315.6,58.7 314.5,59 313.1,59.4 311.2,60.6 
			309.3,62.1 308.3,59 308.3,59 309.7,57.8 310.2,57.4 310.5,57.2 312.4,56.4 313.9,55.9 315.5,55.7 317.1,55.7 318.8,56 		"/>
		<polygon id="polygon34655" class="st0" points="325,93.7 325.5,94.7 326.4,96 327.2,96.6 328.1,97.4 329.5,97.8 330.1,97.9 
			331.6,97.8 333.3,97.1 347,87.8 348.7,90.3 335.1,99.8 333.5,100.6 332.7,100.8 331.3,101 329.7,100.8 328.3,100.4 326.3,99.1 
			324.5,97.5 323.1,95.4 322.2,93.2 322,91.6 322,89.9 322.3,88.4 323.1,86.9 324.1,85.4 324.8,84.8 324.8,84.8 338.5,75.4 
			340.4,78.1 326.8,87.5 326.1,87.9 325.2,89.1 324.8,89.7 324.5,91.1 324.6,92.8 		"/>
		<polygon id="polygon34657" class="st0" points="337.7,116.7 338.9,117.9 339.9,118.8 341.4,119.4 342.2,119.4 343.1,119.3 
			343.6,119.1 344.3,118.7 344.9,117.8 345.3,117 345.5,115.3 345.1,114.1 343.6,107.9 343.5,106.5 343.9,104.6 344.4,103.4 
			345.1,102.3 345.8,101.9 347.4,101 348.9,100.6 349.7,100.6 351.5,100.8 352.4,101.3 353.6,102 354.5,102.9 356,104.8 
			356.5,105.6 357.3,107.9 357.7,109.1 357.8,110.3 357.7,112.5 357.2,113.6 356.8,114.4 356.1,115.3 355.2,115.9 354.2,116.6 
			352.8,113.8 353.2,113.6 353.9,112.9 354.5,112.3 354.7,112 354.9,111.1 355.1,109.7 354.6,107.8 353.9,106.3 353.1,105.2 
			352.3,104.6 351.1,103.8 350.2,103.6 349.3,103.6 348.3,104 347.8,104.1 347.3,105 347.1,105.8 347.1,107.3 348.6,114.2 
			348.7,116.7 348.5,118.6 347.8,119.7 347.2,120.8 346,121.7 345.1,122.1 343.5,122.5 342.7,122.7 341.2,122.4 339.7,121.9 
			338.3,121 336.9,119.9 335.9,118.6 334.9,117.1 334.2,115.4 333.7,113.7 333.5,112.1 333.5,111.2 333.9,109.5 334.6,107.9 
			335.1,107.2 336.4,105.9 337.2,105.4 338.1,104.9 338.1,104.9 339.5,107.5 338.9,107.9 337.7,109.1 336.9,110 336.5,111.6 
			336.5,112.7 336.7,114.2 337,115.4 		"/>
		<polygon id="polygon34659" class="st0" points="342,131 342,131 364.5,124.4 365.3,127.2 342.8,133.8 		"/>
		<polygon id="polygon34661" class="st0" points="345.9,145.4 345.3,142.4 345.3,142.4 368.3,138 369,141.8 352.7,156.7 
			371.1,153.1 371.8,156.1 348.7,160.4 348.1,157 364.2,141.9 		"/>
		<polygon id="polygon34663" class="st0" points="373.6,175.3 373.6,177.1 373.2,179.5 372.5,181 371.8,182.1 370.8,183.5 
			370.2,183.9 368.9,184.8 368.2,185 367,185.3 366.8,182.3 367,182.3 368.3,181.5 369.3,180.4 370.2,179 370.5,178.1 370.8,176.4 
			370.8,175.4 370.6,174.3 370.2,173.1 369.6,171.6 369,170.7 368.1,169.8 366.6,168.7 364,167.8 363,167.7 360.8,167.7 
			357.7,168.3 355.1,169.4 354,170.2 353.5,170.8 352.8,172.3 352.2,173.5 352,174.4 352,176.6 352.2,177.9 353,179.8 353.2,180.4 
			354.4,181.8 354.9,182.3 356.4,183.1 357.1,183.5 359,183.6 360.2,183.5 359.6,176.1 362.3,176 363.2,185.8 350.8,187 
			350.6,184.8 353.3,184 352,182.7 350.3,180.6 349.7,179 349.3,177.3 349,175.8 349.2,174.2 349.7,171.8 350.3,170.4 351.4,169.1 
			353.1,167.3 354.6,166.4 357.2,165.2 361.7,164.5 361.7,164.5 364.3,164.9 366.8,165.6 368.6,166.6 369.8,167.4 371.1,169.1 
			372.1,170.4 372.6,171.5 373.4,174 		"/>
		<polygon id="polygon34665" class="st0" points="15.1,209.5 16.9,216.3 25.6,210.6 15.1,209.5 4.3,205.4 4.3,205.4 29,207.9 
			30,211.5 9.4,225.4 8.5,222 14.3,217.9 12.3,209.4 5.2,208.8 4.3,205.4 		"/>
		<polygon id="polygon34667" class="st0" points="8.7,234.9 7.6,232 7.6,232 29.5,224 30.9,227.4 17.2,245.1 34.9,238.4 35.9,241.1 
			14.1,249.4 12.9,246 26.1,228.6 		"/>
		<polygon id="polygon34669" class="st0" points="40.8,265.5 39.1,267 37.5,268.2 36,268.9 35.6,269.3 35.1,269.4 33.5,269.9 
			31.6,270.5 29.5,270.7 27.9,270.5 26.3,270.2 25.4,269.8 23.9,268.8 22.9,267.5 22.1,266.4 17.5,258.2 37.5,246.6 21.6,259.4 
			25,265.5 25.4,266.1 26.3,266.9 27.4,267.3 28.7,267.5 30,267.5 32.3,266.9 35.2,265.5 37.8,263.6 39.3,261.8 40,260.5 
			40.4,259.2 40.5,258.6 40.2,257.3 40,256.5 39.7,255.8 36.8,250.6 21.6,259.4 37.5,246.6 37.5,246.6 42.2,254.5 42.8,256.1 
			43.2,256.8 43.4,258.6 43.4,259.5 42.9,261.8 42.1,263.6 41.6,264.6 		"/>
		<polygon id="polygon34671" class="st0" points="45.9,297.1 46.8,298.6 47.9,299.6 48.3,300.1 49.7,300.7 50.1,301 51.2,301.1 
			52.2,301.1 53.2,300.9 54.7,299.8 67.4,289 69.5,291.5 56.8,302.4 55.5,303.4 54.7,303.7 53.3,304 52.5,304 51,303.9 49.5,303.6 
			48.1,302.8 46.2,301.3 45,300.2 44.1,298.8 43.3,297.4 42.8,295.6 42.6,295 42.6,293.4 42.8,292.5 43.4,290.9 43.8,290.2 
			45,288.6 45,288.6 57.6,277.8 59.7,280.3 47.1,291.2 46.3,292.1 45.7,293 45.5,294 45.5,295 45.7,296.5 		"/>
		<polygon id="polygon34673" class="st0" points="85.5,311.8 84.9,313 83.8,314 82.8,314.8 81.9,315.2 80.7,315.5 79.4,315.5 
			78.7,315.1 78.9,316.9 78.7,318.5 78.3,319.3 77.5,320.6 75,323.1 74.6,323.8 74.3,324.9 74.4,325.9 73.8,326.4 71.2,323.9 
			71.8,322.5 75,318.7 75.6,317.5 75.8,316.2 75.3,314.8 74.6,313.6 68.7,308.5 62.1,316 59.9,313.9 70.6,306.3 76.7,311.8 
			76.9,311.9 77.5,312.4 78.2,312.7 79.1,312.8 80.3,312.6 80.9,312.4 81.8,311.8 82.6,310.5 82.8,310.2 82.9,309.4 82.9,308.2 
			82.5,307.3 81.2,305.5 75.8,300.6 70.6,306.3 59.9,313.9 59.9,313.9 75.3,296.4 84.1,304.3 85,305.2 85.5,306.1 85.9,307.3 
			86.3,308.4 86.3,309.4 85.9,310.6 		"/>
		<polygon id="polygon34675" class="st0" points="105.5,327.3 104.4,328.1 104.1,328.2 102.9,328.6 102,328.8 101.3,328.7 
			102.5,330.3 102.7,331.2 102.8,333 102.5,333.9 102,335 101.3,336.1 100.9,336.7 100,337.5 99,338.1 98.3,338.4 97.6,338.5 
			97.5,338.6 95.5,338.7 95.3,338.6 94.5,338.6 93.3,338.3 92.9,338 83.4,332.2 87.5,331.2 94.5,335.4 95.3,335.5 95.9,335.6 
			97.2,335.5 98.3,334.9 98.8,334.4 99.3,333.6 99.6,332.4 99.6,331.8 99.5,331.2 99.3,330.5 99,329.8 98.1,328.8 91.5,324.7 
			87.5,331.2 83.4,332.2 93.1,322.2 98.7,325.5 99,325.9 99.6,326.1 100.4,326.3 101.1,326.3 101.7,326.1 102.2,325.8 103.3,324.8 
			103.8,323.9 104,323.1 104,322.5 103.8,321.7 103.7,321 103.1,320.1 102.5,319.4 101.5,318.7 96.8,316 93.1,322.2 83.4,332.2 
			83.4,332.2 95.6,312.4 104.5,317.7 105.8,319.1 106.8,320.7 107.2,322.5 107.1,324.3 106.8,325.3 105.7,326.9 		"/>
		<polygon id="polygon34677" class="st0" points="213.8,25.3 216.9,4.7 209.4,3.4 209.8,0.9 227.8,3.8 227.4,6.4 220.3,5.3 
			216.9,25.9 		"/>
		<polygon id="polygon34679" class="st0" points="187.3,23.7 184.2,23.7 184.2,23.7 184.5,0.4 188.3,0.4 199.5,19.5 199.8,0.7 
			202.8,0.7 202.5,24 199,24 187.5,5.3 		"/>
		<polygon id="polygon34681" class="st0" points="162.8,22.5 176.4,20.8 176.7,23.4 160.2,25.6 160.2,25.6 157.1,2.4 173.2,0.3 
			173.5,2.9 160.5,4.6 161.4,12.1 173.9,10.3 174.4,13 162,14.6 		"/>
		<polygon id="polygon34683" class="st0" points="144.2,29.1 141.3,29.9 130,14.2 135.4,31.7 132.1,32.6 132.1,32.6 125.5,10.2 
			130,9.1 141.8,26 142.4,5.3 146.8,4 153.4,26.3 150.3,27.4 145,9.5 		"/>
		<polygon id="polygon34685" class="st0" points="119.3,37.5 110.4,18.7 103.3,22 102.1,19.7 118.8,12 120,14.2 113.3,17.3 
			122.2,36.1 		"/>
		<polygon id="polygon34687" class="st0" points="101.1,28.4 101.2,29.1 101.3,30.4 101.3,31.1 101.2,32.4 100.6,33.6 102,33.7 
			103.6,34.2 105,35.5 106.2,37.3 107.6,39.6 108.6,40.3 109.1,40.5 109.7,40.5 110.2,41.2 107,43.3 106.7,43 106.2,42.4 
			102.8,37.9 101.9,37.1 101.1,36.6 100.4,36.5 99.6,36.5 97.9,37.1 91.3,41.2 96.8,49.7 94.3,51.2 90,38.8 96.7,34.5 97.1,34.4 
			97.5,33.9 98,33.3 98.4,32.1 98.4,30.5 98.2,29.8 97.6,28.9 97.2,28.4 96.6,27.9 95.9,27.6 95,27.5 94.2,27.6 93.1,27.8 
			91.9,28.3 85.8,32.3 90,38.8 94.3,51.2 94.3,51.2 81.8,31.5 91.7,25.3 93,24.6 94.6,24.2 95.8,24.2 97.2,24.7 99.3,26 100.3,26.9 
					"/>
		<polygon id="polygon34689" class="st0" points="71,57.4 76.5,52.9 67.8,47.5 71,57.4 71.8,69.1 71.8,69.1 63.7,45.6 66.6,43.3 
			88,55.9 85.3,58.2 78.9,54.5 72,60 74.6,66.7 71.8,69.1 		"/>
		<polygon id="polygon34691" class="st0" points="57.5,58.5 58.2,59.1 59.3,60.6 60.1,62.3 60.4,63.3 60.5,64.2 60.3,65.3 
			59.9,66.5 59.2,67.3 54.1,73.7 61.8,80 59.9,82.3 46.2,67 52,72.1 57.1,65.9 57.1,65.8 57.2,64.6 57.2,63.6 57,62.8 56.3,61.7 
			55.6,60.8 55,60.7 54.2,60.3 53.2,60.1 51.9,60.4 51.4,60.7 51.2,60.9 50.8,61.4 46.2,67 59.9,82.3 59.9,82.3 41.9,67.3 
			48.8,59.1 49.9,58 50.8,57.4 52.5,57 53.3,57 54.5,57.1 56.2,57.6 		"/>
		<polygon id="polygon34693" class="st0" points="46.2,96.1 52.6,84.4 55,85.4 47,100 47,100 26.6,89 34.3,74.7 36.7,76 30.3,87.5 
			36.9,91.1 42.8,80.1 45.3,81.5 39.2,92.4 		"/>
		<polygon id="polygon34695" class="st0" points="27.2,99.1 29,99.6 31,100.1 34.7,102 37.2,104.1 38.2,105.3 39.1,106.6 
			39.4,107.5 39.7,109.1 39.7,110.7 39.2,113.2 35.9,121.9 13.9,113.6 34.1,117.9 36.7,111.5 36.9,110.3 36.9,109.7 36.4,108.5 
			35.9,107.4 34.4,105.8 33.1,104.9 31.7,104.1 28.7,103.1 27,102.8 25.5,102.8 23.9,102.9 22.6,103.2 21.6,103.8 20.5,104.8 
			19.8,106.1 17.6,111.8 34.1,117.9 13.9,113.6 13.9,113.6 17.3,104.9 17.9,103.8 18.8,102.4 20.1,101.2 21.3,100.4 22.4,99.9 
			23.9,99.4 25.5,99.1 		"/>
		<polygon id="polygon34697" class="st0" points="26.3,147.3 26.3,146.2 26.4,145.2 26.3,143.6 25.9,142.8 25.4,141.9 24.8,141.3 
			23.9,140.8 22.6,140.6 22.2,140.6 21.3,141 20,141.9 18.9,143.4 18.4,144.8 16.2,149.2 15.4,150.2 14.3,151.1 13.3,151.8 
			12.2,152.2 10.6,152.2 8.8,151.8 8.4,151.6 6.8,150.6 5.9,149.6 5,148.1 4.8,147 4.7,145.2 4.8,143.9 5,142.3 5.1,141.9 
			6.1,139.4 7.5,137.4 8.7,136.2 10,135.7 11.4,135.4 13,135.6 13.8,135.8 13.1,138.7 12.6,138.6 11.7,138.4 10.9,138.7 10,139.1 
			9.4,139.6 8.7,140.4 8.1,141.1 7.7,142.1 7.5,143.6 7.2,145.5 7.5,146.6 8,147.3 8.4,148.1 9.3,148.6 10.1,149 10.6,149.2 11,149 
			11.8,148.6 12.3,148.5 13.2,147.3 14.5,145.3 16.9,140.6 17.6,139.5 18.9,138.2 19.6,137.9 21.3,137.3 21.9,137 23.4,137 
			25,137.5 25.8,138 27,139.1 28,140.4 28.7,141.8 29,143.4 29.2,145.2 29,146.9 28.3,149.5 27.1,151.8 26.7,152.5 25.4,153.6 
			23.9,154.6 23.1,154.9 21.6,155.4 20.5,155.4 18.7,154.9 18.7,154.9 19.3,152 20,152.2 21,152.2 22.2,152 23.1,151.6 24.5,150.6 
			25.1,149.8 25.6,148.9 		"/>
		<polygon id="polygon34699" class="st0" points="29.6,137.9 29.6,137.9 26.3,137 27,133.5 30.5,134.4 		"/>
		<polygon id="polygon34701" class="st0" points="24.6,165.2 24.6,165.2 20.9,164.9 21.3,161.5 24.8,161.8 		"/>
		<polygon id="polygon34703" class="st0" points="22.9,176 23,174.3 23,173.3 22.5,172.3 22.2,171.2 21.7,170.4 20.8,169.8 
			20,169.3 18.2,168.7 1.7,167.7 1.8,164.4 18.4,165.5 19.3,165.6 20.8,166 21.6,166.5 22.6,167.3 23.1,167.8 24.1,169.3 
			24.5,169.9 25,171.4 25.3,172.3 25.4,173.9 25.3,176.2 24.6,178.6 24.3,179.3 23,181.2 21.7,182.3 20.8,182.9 19.2,183.5 
			17.3,183.6 17.3,183.6 0.8,182.6 0.9,179.3 18.7,180.4 19.8,179.9 20.7,179.4 21.4,178.7 22,177.9 22.4,177 		"/>
		<polygon id="polygon34705" class="st0" points="113,337.3 119.4,340.1 120.3,329.9 113,337.3 103.1,343.6 103.1,343.6 
			120.1,325.3 123.6,326.8 122.1,351.7 119,350.2 119.3,343 111.3,339.7 106.5,344.9 103.1,343.6 		"/>
		<polygon id="polygon34707" class="st0" points="129,353.6 126.2,352.7 126.2,352.7 132.4,330.3 136.1,331.3 142.1,352.5 
			147.1,334.4 150.1,335.2 143.8,357.7 140.5,356.8 134.1,335.6 		"/>
		<polygon id="polygon34709" class="st0" points="185.3,347.6 185.4,350.2 185.2,352.7 184.5,355.5 184,356.8 183.3,358.3 
			182.7,359.2 181.6,360.3 180.7,360.9 179.4,361.5 177.1,362.2 175.7,362.2 166.5,361.9 167.3,338.5 169.5,358.9 177.3,359.3 
			178.3,358.9 179.4,358.1 180.2,357.3 180.8,356 181.4,354.6 181.8,353.1 182,350.5 182,349 181.7,347.3 181.3,345.9 180.7,344.4 
			179.9,343.4 178.9,342.4 177.7,341.8 176.3,341.6 170.2,341.3 169.5,358.9 167.3,338.5 167.3,338.5 176.6,338.7 177.8,339 
			179.4,339.4 181.3,340.6 182.7,341.8 183.7,343 184.5,344.9 185.1,346.3 		"/>
		<polygon id="polygon34711" class="st0" points="196.9,359.6 210.4,358.5 210.7,361.2 194.1,362.5 194.1,362.5 192.1,339.3 
			208.3,338 208.5,340.4 195.3,341.4 196.1,349 208.6,348.1 208.8,350.8 196.2,351.8 		"/>
		<polygon id="polygon34713" class="st0" points="248.7,349.6 261.2,344.4 262.4,347.1 247,353.4 247,353.4 238.1,331.8 
			252.9,325.6 253.8,328.1 241.9,333 244.7,339.9 256.3,335.1 257.4,337.7 245.7,342.4 		"/>
		<polygon id="polygon34715" class="st0" points="347.4,269.9 353.6,258 356.1,259.1 348.6,274 348.6,274 327.7,263.3 335.1,249 
			337.3,250.2 331.3,261.8 338,265.3 343.6,254 346.3,255.3 340.6,266.5 		"/>
		<polygon id="polygon34717" class="st0" points="263.9,320.9 273.1,339.3 283.1,334.3 284.4,336.8 271.4,343.2 271.4,343.2 
			261,322.4 		"/>
		<polygon id="polygon34719" class="st0" points="278.7,312.4 279.7,310.9 280.7,310.1 282.2,308.8 283.9,308.1 284.3,307.7 
			284.8,307.6 285.2,307.4 287.7,306.9 289.9,307.2 290.9,307.3 292,307.6 293.6,308.5 295.1,309.7 296.2,310.5 298.2,313 
			299.7,316.2 300.1,317.4 300.3,319.6 300.3,320.6 300.1,322.4 299.9,323.4 299,325.5 298.2,326.6 297.4,327.5 296.4,328.5 
			294.7,329.8 294.3,330.1 292.5,330.9 290.8,331.3 289.8,331.4 287.6,331.3 285.4,330.6 283.9,329.9 282.1,328.5 281.1,327.5 
			279.4,325.5 278.5,324.3 282,323.9 282.1,324.2 283.5,325.6 285.2,327.1 286.2,327.6 287.3,328.1 289.4,328.5 290.7,328.4 
			292.2,328.1 293.2,327.5 294.6,326.6 295.5,325.8 296,325.1 296.6,324 297.2,321.7 297.2,320.9 297.1,319.3 296.9,318.3 
			295.8,315.5 294.7,313.6 293.9,312.7 292.8,311.8 291.9,311 290.2,310.2 289,310 287.4,310 285.6,310.2 285.2,310.3 283.7,311.2 
			282.2,312.4 281.1,313.9 280.6,314.9 280.1,316.1 280.1,316.8 279.9,318.3 280.1,319.7 280.4,320.7 281,322.4 282,323.9 
			278.5,324.3 278.5,324.3 278.1,323.4 277.7,322.5 277.2,321.1 277,320.1 276.9,317.5 277,316 277.5,314.9 278.1,313.4 		"/>
		<polygon id="polygon34721" class="st0" points="212,337.7 215.1,336.9 225.8,354.8 228.2,334.3 231.4,333.5 228.3,358 
			225.1,358.8 225.1,358.8 		"/>
		<polygon id="polygon34723" class="st0" points="311,291.7 312.6,293 313.5,294.3 314.2,295.6 314.7,296.9 314.8,298 314.7,298.9 
			314.5,299.8 313.9,301 312.9,302.2 306.9,307.4 313.4,315 311.2,316.9 300.1,299.7 305.2,305.6 311,300.5 311,300.3 311.5,299.1 
			311.5,297.2 311,296.1 310.3,295 309,294.3 308.2,294 307.3,294 305.9,294.5 305.4,294.9 300.1,299.7 311.2,316.9 311.2,316.9 
			295.8,299.3 303.9,292.2 304,292.1 305.2,291.4 305.7,291.2 306.8,290.7 308.3,290.7 310,291.3 		"/>
		<polygon id="polygon34725" class="st0" points="335.2,290.5 333.3,293 315.2,286.1 329.3,297.7 327.2,300.2 327.2,300.2 
			309.3,285.2 312.2,281.7 331.3,289.3 320.6,271.7 323.5,268.4 341.4,283.4 339.3,285.7 325,273.8 		"/>
		<polygon id="polygon34727" class="st0" points="361.7,247.5 360.8,250.4 360.8,250.4 338.5,243.2 339.7,239.7 361.1,234.5 
			343.2,228.6 344.2,225.7 366.4,233 365.3,236.3 344,241.8 		"/>
		<polygon id="polygon34729" class="st0" points="370.2,219 349.7,214.7 348,222.3 345.6,221.8 349.3,203.9 351.8,204.3 
			350.3,211.5 370.8,215.7 		"/>
		<polygon id="polygon34731" class="st1" points="121.4,291.7 121.4,291.7 133.6,291.7 133.6,191.7 121.4,191.7 		"/>
		<polygon id="polygon34733" class="st1" points="139.1,298 139.1,298 151.3,298 151.3,177.7 139.1,177.7 		"/>
		<polygon id="polygon34735" class="st1" points="156.5,298.8 156.5,298.8 168.8,298.8 168.8,163.2 156.5,163.2 		"/>
		<polygon id="polygon34737" class="st1" points="174.6,297.8 174.6,297.8 186.9,297.8 186.9,197 174.6,197 		"/>
		<polygon id="polygon34739" class="st1" points="191.9,297.8 191.9,297.8 204,297.8 204,197 191.9,197 		"/>
		<polygon id="polygon34741" class="st1" points="209.6,298 209.6,298 221.9,298 221.9,162 209.6,162 		"/>
		<polygon id="polygon34743" class="st1" points="227.6,298 227.6,298 239.9,298 239.9,177.7 227.6,177.7 		"/>
		<polygon id="polygon34745" class="st1" points="245.2,291.6 245.2,291.6 257.5,291.6 257.5,191.6 245.2,191.6 		"/>
		<polygon id="polygon34747" class="st2" points="120.7,88.3 120.7,88.3 120.7,187.2 132.8,187.2 132.8,79.1 		"/>
		<polygon id="polygon34749" class="st2" points="138.7,75.7 138.7,75.7 138.7,172.3 150.8,172.3 150.8,66.5 		"/>
		<polygon id="polygon34751" class="st2" points="156.5,63 156.5,63 156.5,157.1 168.8,157.1 168.8,53.8 		"/>
		<polygon id="polygon34753" class="st2" points="222,64.1 222,64.1 222,157.3 209.6,157.3 209.6,55 		"/>
		<polygon id="polygon34755" class="st2" points="239.5,75.8 239.5,75.8 239.5,172.4 227.3,172.4 227.3,66.6 		"/>
		<polygon id="polygon34757" class="st2" points="257.5,89.1 257.5,89.1 257.5,187.8 245.3,187.8 245.3,80 		"/>
		<polygon id="polygon34759" class="st2" points="193.2,101.7 192.1,100.9 190.8,100.4 190.1,100 188.8,99.8 187.4,99.7 186,99.8 
			185,99.9 183.6,100.4 182.4,101 181.1,102 179.6,103.4 179,104.5 178.3,105.6 177.9,106.9 177.6,108.1 177.5,109.7 177.5,109.7 
			184.4,109.7 174.8,120.4 174.8,190.6 202.7,190.6 202.7,116.7 195.5,105 194.9,104 194.2,102.9 		"/>
		<polygon id="polygon34761" class="st1" points="79.4,188.9 68.1,197.6 68.1,197.6 72.6,183.6 61.2,174.9 75.3,174.9 79.4,162.4 
			83.7,174.9 97.9,174.9 86.7,183.6 90.8,197.3 		"/>
		<polygon id="polygon34763" class="st2" points="297.2,189.9 285.9,198.6 285.9,198.6 290.5,184.6 279.1,176 293.2,176 
			297.2,163.4 301.4,176 315.8,176 304.5,184.6 308.7,198.1 		"/>
	</g>
</g>
</svg>
